<?xml version="1.0" standalone="no"?>
<!DOCTYPE svg PUBLIC "-//W3C//DTD SVG 1.1//EN" "http://www.w3.org/Graphics/SVG/1.1/DTD/svg11.dtd" >
<svg xmlns="http://www.w3.org/2000/svg" xmlns:xlink="http://www.w3.org/1999/xlink" version="1.1">
<metadata></metadata>
<defs>
<font id="relativebook" horiz-adv-x="634" >
<font-face units-per-em="1024" ascent="819" descent="-205" />
<missing-glyph horiz-adv-x="261" />
<glyph horiz-adv-x="0" />
<glyph horiz-adv-x="0" />
<glyph horiz-adv-x="341" />
<glyph unicode="&#xd;" horiz-adv-x="0" />
<glyph unicode=" "  horiz-adv-x="261" />
<glyph unicode="&#x09;" horiz-adv-x="261" />
<glyph unicode="&#xa0;" horiz-adv-x="261" />
<glyph unicode="!" horiz-adv-x="309" d="M122 717h65q11 0 11 -10v-499q0 -10 -11 -10h-65q-10 0 -10 10v499q0 10 10 10zM114 102h82q10 0 10 -10v-82q0 -10 -10 -10h-82q-11 0 -11 10v82q0 10 11 10z" />
<glyph unicode="&#x22;" horiz-adv-x="425" d="M76 492v215q0 10 10 10h59q11 0 11 -10v-215q0 -11 -11 -11h-59q-10 0 -10 11zM270 492v215q0 10 11 10h59q10 0 10 -10v-215q0 -11 -10 -11h-59q-11 0 -11 11z" />
<glyph unicode="#" horiz-adv-x="795" d="M425 10l33 193h-175l-33 -193q-1 -10 -11 -10h-66q-10 0 -9 10l33 193h-115q-10 0 -10 10v61q0 11 10 11h129l26 147h-114q-10 0 -10 10v62q0 10 10 10h127l34 193q1 10 11 10h65q11 0 10 -10l-34 -193h175l34 193q1 10 11 10h66q10 0 9 -10l-34 -193h116q10 0 10 -10 v-62q0 -10 -10 -10h-129l-26 -147h114q10 0 10 -11v-61q0 -10 -10 -10h-128l-33 -193q-1 -10 -11 -10h-66q-10 0 -9 10zM323 432l-26 -147h175l26 147h-175z" />
<glyph unicode="$" horiz-adv-x="604" d="M257 -92v85q-97 11 -158.5 72.5t-61.5 151.5q0 10 10 10h66q10 0 10 -10q2 -54 38 -93t96 -49v263q-100 29 -152.5 74.5t-52.5 123.5q0 81 58 130t147 59v84q0 10 10 10h66q10 0 10 -10v-84q90 -12 143.5 -68.5t55.5 -129.5q0 -10 -11 -10h-65q-10 0 -10 10 q-3 43 -34.5 74t-78.5 42v-241q107 -30 164.5 -73.5t57.5 -119.5q0 -98 -60 -153t-162 -64v-84q0 -10 -10 -10h-66q-10 0 -10 10zM479 204q0 40 -35.5 65t-100.5 45v-240q136 14 136 130zM138 540q0 -41 30.5 -67t88.5 -46v216q-53 -7 -86 -34.5t-33 -68.5z" />
<glyph unicode="%" horiz-adv-x="907" d="M848 183q0 -86 -52.5 -134.5t-123.5 -48.5t-123.5 48.5t-52.5 134.5t52.5 135t123.5 49t123.5 -49t52.5 -135zM783 183q0 60 -32.5 90.5t-78.5 30.5t-79 -30.5t-33 -90.5t33 -90.5t79 -30.5t78.5 30.5t32.5 90.5zM412 534q0 -86 -52.5 -135t-123.5 -49t-124 49t-53 135 t53 134.5t124 48.5t123.5 -48.5t52.5 -134.5zM347 534q0 60 -32.5 90t-78.5 30t-79 -30.5t-33 -89.5q0 -60 33 -90.5t79 -30.5t78.5 30.5t32.5 90.5zM148 41l567 673q6 8 14 0l28 -24q7 -7 2 -14l-566 -673q-7 -8 -15 0l-27 24q-8 8 -3 14z" />
<glyph unicode="&#x26;" horiz-adv-x="694" d="M553 286q-7 -81 -38 -148l88 -122q3 -6 3 -9q0 -7 -8 -7h-78q-7 0 -13 9l-41 57q-72 -76 -193 -76q-97 0 -155.5 55.5t-58.5 153.5q0 141 143 218q-56 75 -56 146q0 67 47.5 115.5t124.5 48.5q75 0 122.5 -43t47.5 -109q0 -57 -26 -93.5t-76 -62.5l-58 -30l134 -179 q17 63 17 148q0 10 10 10h146q10 0 10 -11v-61q0 -10 -10 -10h-82zM273 70q97 0 146 58l-167 222q-54 -31 -80.5 -67t-26.5 -87q0 -60 36 -93t92 -33zM228 566q0 -44 42 -100l10 -13l62 27q65 28 65 90q0 35 -25.5 58t-63.5 23q-40 0 -65 -23t-25 -62z" />
<glyph unicode="'" horiz-adv-x="231" d="M76 492v215q0 10 10 10h59q11 0 11 -10v-215q0 -11 -11 -11h-59q-10 0 -10 11z" />
<glyph unicode="(" horiz-adv-x="365" d="M175 187q0 -95 12 -145.5t40.5 -88t97.5 -96.5q8 -6 1 -15l-39 -48q-4 -4 -7 -4q-4 0 -8 3q-107 87 -145 163.5t-38 199.5v203q0 123 38 199.5t145 163.5q4 3 8 3q3 0 7 -4l39 -48q7 -9 -1 -15q-69 -59 -97.5 -96.5t-40.5 -88t-12 -145.5v-141z" />
<glyph unicode=")" horiz-adv-x="370" d="M196 187v141q0 95 -12 145.5t-40.5 88t-97.5 96.5q-8 6 -1 15l39 48q4 4 7 4t7 -3q108 -88 146 -164.5t38 -198.5v-203q0 -122 -38 -198.5t-146 -164.5q-5 -3 -7 -3q-3 0 -7 4l-39 48q-7 9 1 15q69 59 97.5 96.5t40.5 88t12 145.5z" />
<glyph unicode="*" horiz-adv-x="482" d="M57 565l16 49q3 10 13 7l119 -39v125q0 10 10 10h51q10 0 10 -10v-125l119 39q11 3 14 -8l15 -48q3 -10 -6 -13l-120 -39l74 -100q6 -9 -1 -15l-42 -29q-9 -6 -16 2l-72 100l-73 -100q-6 -8 -15 -2l-42 29q-7 6 -1 15l73 100l-120 39q-9 3 -6 13z" />
<glyph unicode="+" horiz-adv-x="585" d="M333 566v-176h176q10 0 10 -10v-59q0 -11 -10 -11h-176v-176q0 -10 -10 -10h-60q-10 0 -10 10v176h-176q-10 0 -10 11v59q0 10 10 10h176v176q0 11 10 11h60q10 0 10 -11z" />
<glyph unicode="," horiz-adv-x="296" d="M109 -55q30 0 38.5 7.5t8.5 35.5v12h-47q-11 0 -11 10v78q0 10 11 10h77q11 0 11 -10v-107q0 -37 -15.5 -55t-51.5 -18h-21q-11 0 -11 10v16q0 11 11 11z" />
<glyph unicode="-" horiz-adv-x="526" d="M77 390h373q10 0 10 -10v-59q0 -11 -10 -11h-373q-10 0 -10 11v59q0 10 10 10z" />
<glyph unicode="." horiz-adv-x="296" d="M109 98h77q11 0 11 -10v-78q0 -10 -11 -10h-77q-11 0 -11 10v78q0 10 11 10z" />
<glyph unicode="/" horiz-adv-x="493" d="M31 10l355 697q4 10 14 10h71q10 0 6 -10l-355 -697q-4 -10 -14 -10h-71q-10 0 -6 10z" />
<glyph unicode="0" horiz-adv-x="636" d="M48 358q0 178 76.5 273.5t193.5 95.5t194 -95.5t77 -273.5t-76.5 -273t-194.5 -95q-117 0 -193.5 95t-76.5 273zM134 358q0 -151 50 -219.5t134 -68.5t134.5 68.5t50.5 219.5t-50.5 220t-134.5 69t-134 -69t-50 -220z" />
<glyph unicode="1" horiz-adv-x="403" d="M223 10v593l-137 -75q-6 -3 -11 -3q-7 0 -7 10v70q0 11 11 16l166 91q8 5 15 5h37q10 0 10 -10v-697q0 -10 -10 -10h-64q-10 0 -10 10z" />
<glyph unicode="2" horiz-adv-x="621" d="M72 10v43q0 15 11 24l290 279q38 37 51.5 74t13.5 87q0 57 -37 93.5t-101 36.5q-68 0 -105.5 -39.5t-37.5 -98.5q0 -15 -14 -15h-58q-12 0 -12 15q2 94 63 156t164 62q100 0 161 -58.5t61 -149.5q0 -129 -92 -216l-234 -223h338q10 0 10 -10v-60q0 -10 -10 -10h-452 q-10 0 -10 10z" />
<glyph unicode="3" horiz-adv-x="616" d="M239 353v58q0 11 11 11h52q64 0 99 29.5t35 88.5q0 49 -39 78t-96 29q-56 0 -93.5 -31.5t-41.5 -85.5q-1 -12 -13 -12h-57q-13 0 -13 18q5 85 67.5 138t150.5 53q95 0 155 -50t60 -127q0 -59 -21.5 -97.5t-66.5 -65.5q121 -49 121 -178q0 -101 -68.5 -160t-177.5 -59 q-103 0 -170 61.5t-75 159.5q0 17 14 17h55q13 0 14 -13q7 -66 51 -105.5t111 -39.5q74 0 118 36t44 106q0 62 -40.5 96t-114.5 34h-60q-11 3 -11 11z" />
<glyph unicode="4" horiz-adv-x="612" d="M368 10v137h-315q-10 0 -10 11v38q0 12 8 23l328 490q5 8 13 8h49q11 0 11 -10v-480h101q10 0 10 -10v-59q0 -11 -10 -11h-101v-137q0 -10 -12 -10h-62q-10 0 -10 10zM368 552l-220 -325h220v325z" />
<glyph unicode="5" horiz-adv-x="622" d="M77 334l44 373q1 10 10 10h377q10 0 10 -10v-60q0 -10 -10 -10h-314l-30 -216q78 54 165 54q105 0 166 -64.5t61 -176.5q0 -115 -68.5 -179.5t-175.5 -64.5q-102 0 -168.5 59t-71.5 151q0 15 12 15h58q12 0 14 -15q8 -57 51 -93.5t105 -36.5q76 0 118 42.5t42 119.5 q0 75 -42.5 119t-116.5 44q-84 0 -149 -62q-9 -9 -18 -9h-59q-10 0 -10 10z" />
<glyph unicode="6" horiz-adv-x="640" d="M76 327q0 199 70 299.5t189 100.5q89 0 148.5 -48t72.5 -130q0 -10 -11 -10h-62q-8 0 -11 10q-14 52 -51.5 77t-85.5 25q-73 0 -120 -66.5t-49 -198.5q31 38 79 57.5t97 19.5q103 0 167.5 -63t64.5 -174q0 -108 -71 -172t-170 -64q-116 0 -186.5 79.5t-70.5 257.5z M175 226q0 -70 43 -113t115 -43t114.5 43t42.5 113t-42.5 113.5t-114.5 43.5t-115 -43.5t-43 -113.5z" />
<glyph unicode="7" horiz-adv-x="522" d="M42 647v60q0 10 10 10h438q11 0 11 -10v-39q0 -12 -5 -26l-244 -635q-3 -7 -11 -7h-64q-10 0 -10 8q0 3 2 7l237 622h-354q-10 0 -10 10z" />
<glyph unicode="8" horiz-adv-x="616" d="M94 538q0 87 62 138t152 51t152 -51t62 -138q0 -102 -86 -157q109 -58 109 -178q0 -93 -67 -153t-170 -60t-169.5 60t-66.5 153q0 120 108 178q-86 55 -86 157zM156 203q0 -63 41 -98t111 -35t111.5 35t41.5 98t-41.5 99t-111.5 36t-111 -36t-41 -99zM174 532 q0 -52 36.5 -84t97.5 -32t97.5 32t36.5 84q0 54 -37.5 84.5t-96.5 30.5t-96.5 -30.5t-37.5 -84.5z" />
<glyph unicode="9" horiz-adv-x="640" d="M564 390q0 -199 -70 -299.5t-189 -100.5q-89 0 -148.5 48t-72.5 130q0 10 11 10h62q8 0 11 -10q14 -52 51.5 -77t85.5 -25q73 0 120 66.5t49 198.5q-31 -38 -79 -57.5t-97 -19.5q-103 0 -167.5 62.5t-64.5 173.5q0 109 71 173t170 64q116 0 186.5 -79.5t70.5 -257.5z M465 490q0 70 -43 113.5t-115 43.5t-114.5 -43.5t-42.5 -113.5t42.5 -113t114.5 -43t115 43t43 113z" />
<glyph unicode=":" horiz-adv-x="296" d="M109 98h77q11 0 11 -10v-78q0 -10 -11 -10h-77q-11 0 -11 10v78q0 10 11 10zM109 514h77q11 0 11 -10v-78q0 -10 -11 -10h-77q-11 0 -11 10v78q0 10 11 10z" />
<glyph unicode=";" horiz-adv-x="296" d="M109 514h77q11 0 11 -10v-78q0 -10 -11 -10h-77q-11 0 -11 10v78q0 10 11 10zM109 -55q30 0 38.5 7.5t8.5 35.5v12h-47q-11 0 -11 10v78q0 10 11 10h77q11 0 11 -10v-107q0 -37 -15.5 -55t-51.5 -18h-21q-11 0 -11 10v16q0 11 11 11z" />
<glyph unicode="&#x3c;" horiz-adv-x="529" d="M456 125v-70q0 -11 -11 -6l-369 200q-10 4 -10 13v76q0 9 10 13l369 200q11 5 11 -6v-70q0 -9 -11 -14l-304 -161l304 -161q11 -5 11 -14z" />
<glyph unicode="=" horiz-adv-x="581" d="M88 452h432q10 0 10 -11v-59q0 -10 -10 -10h-432q-10 0 -10 10v59q0 11 10 11zM88 244h432q10 0 10 -11v-59q0 -10 -10 -10h-432q-10 0 -10 10v59q0 11 10 11z" />
<glyph unicode="&#x3e;" horiz-adv-x="529" d="M74 55v70q0 10 10 14l304 161l-304 161q-10 4 -10 14v70q0 10 10 6l370 -200q10 -4 10 -13v-76q0 -9 -10 -13l-370 -200q-10 -4 -10 6z" />
<glyph unicode="?" horiz-adv-x="583" d="M77 524q3 85 63.5 144t160.5 59q98 0 156.5 -54.5t58.5 -141.5q0 -41 -18 -73.5t-43.5 -55t-51 -44t-43.5 -50t-18 -62.5v-38q0 -10 -10 -10h-66q-10 0 -10 10v31q0 45 18 81.5t43.5 60t51 45t43.5 47.5t18 57q0 54 -35 84.5t-94 30.5q-56 0 -94.5 -31.5t-45.5 -89.5 q-1 -10 -10 -10h-64q-10 0 -10 10zM258 102h82q10 0 10 -10v-82q0 -10 -10 -10h-82q-10 0 -10 10v82q0 10 10 10z" />
<glyph unicode="@" horiz-adv-x="825" d="M712 315q0 123 -73.5 206.5t-211.5 83.5q-131 0 -220.5 -85t-89.5 -228q0 -150 86 -237t224 -87q62 0 105 14t89 41q8 4 12 -5l21 -43q3 -8 -4 -12q-108 -58 -223 -58q-165 0 -273 106t-108 281q0 169 112 273t269 104q107 0 189 -50t122.5 -127.5t40.5 -167.5 q0 -117 -40.5 -176t-111.5 -59q-36 0 -66.5 18.5t-39.5 45.5q-54 -64 -141 -64q-71 0 -117.5 48t-46.5 135q0 91 55.5 157t143.5 66q77 0 111 -53l4 37q2 8 9 8h45q8 0 8 -8l-24 -215q-2 -24 -2 -36q0 -43 18.5 -62.5t46.5 -19.5q81 0 81 169zM517 308q0 129 -98 129 q-64 0 -98.5 -49t-34.5 -116q0 -61 26 -93.5t75 -32.5q62 0 96 46.5t34 115.5z" />
<glyph unicode="A" horiz-adv-x="641" d="M538 10l-71 198h-293l-71 -198q-3 -10 -12 -10h-68q-12 0 -12 10q0 3 1 6l254 691q3 10 10 10h89q7 0 10 -10l254 -691q1 -3 1 -6q0 -10 -12 -10h-68q-9 0 -12 10zM321 613l-117 -323h233z" />
<glyph unicode="B" horiz-adv-x="644" d="M96 0q-10 0 -10 10v697q0 10 10 10h247q90 0 151 -45.5t61 -133.5q0 -103 -85 -157q116 -54 116 -177q0 -93 -58.5 -148.5t-154.5 -55.5h-277zM172 336v-254h186q67 0 104.5 32t37.5 96q0 62 -38 94t-104 32h-186zM172 635v-217h182q51 0 83 25.5t32 81.5q0 51 -33 80.5 t-82 29.5h-182z" />
<glyph unicode="C" horiz-adv-x="723" d="M605 249h63q11 0 11 -10q-16 -114 -101 -181.5t-205 -67.5q-130 0 -225 96t-95 272t95 272.5t225 96.5q120 0 205 -67.5t101 -181.5q0 -10 -11 -10h-63q-9 0 -12 10q-48 167 -220 167q-98 0 -164 -73.5t-66 -213.5t66 -213t164 -73q172 0 220 167q3 10 12 10z" />
<glyph unicode="D" horiz-adv-x="674" d="M86 10v697q0 10 10 10h199q141 0 234 -93.5t93 -265.5t-93 -265t-234 -93h-199q-10 0 -10 10zM283 635h-111v-553h111q113 0 180.5 69t67.5 207t-67.5 207.5t-180.5 69.5z" />
<glyph unicode="E" horiz-adv-x="598" d="M172 336v-254h353q11 0 11 -10v-62q0 -10 -11 -10h-429q-10 0 -10 10v697q0 10 10 10h414q10 0 10 -10v-62q0 -10 -10 -10h-338v-217h307q10 0 10 -10v-62q0 -10 -10 -10h-307z" />
<glyph unicode="F" horiz-adv-x="603" d="M172 321v-311q0 -10 -10 -10h-66q-10 0 -10 10v697q0 10 10 10h428q11 0 11 -10v-62q0 -10 -11 -10h-352v-233h320q10 0 10 -10v-61q0 -10 -10 -10h-320z" />
<glyph unicode="G" horiz-adv-x="730" d="M393 365h280q10 0 10 -11v-178q0 -24 -10 -39q-96 -147 -279 -147q-145 0 -243 96.5t-98 271.5q0 89 28 161t75 116.5t104.5 68t119.5 23.5q111 0 192 -55.5t101 -159.5q0 -10 -11 -10h-66q-9 0 -12 10q-19 68 -73 100.5t-131 32.5q-100 0 -168.5 -76.5t-68.5 -210.5 q0 -138 65.5 -212t181.5 -74q146 0 207 103v108h-204q-10 0 -10 10v61q0 11 10 11z" />
<glyph unicode="H" horiz-adv-x="694" d="M172 333v-323q0 -10 -10 -10h-66q-10 0 -10 10v697q0 10 10 10h66q10 0 10 -10v-292h350v292q0 10 10 10h66q10 0 10 -10v-697q0 -10 -10 -10h-66q-10 0 -10 10v323h-350z" />
<glyph unicode="I" horiz-adv-x="258" d="M86 10v697q0 10 10 10h66q10 0 10 -10v-697q0 -10 -10 -10h-66q-10 0 -10 10z" />
<glyph unicode="J" horiz-adv-x="553" d="M493 707v-454q0 -133 -64 -198t-168 -65q-105 0 -166 64.5t-61 163.5q0 10 10 10h66q10 0 10 -10q0 -64 38.5 -105t102.5 -41q74 0 110 44t36 136v455q0 10 10 10h65q11 0 11 -10z" />
<glyph unicode="K" horiz-adv-x="628" d="M172 707v-309l290 309q9 10 16 10h86q7 0 9 -5.5t-3 -9.5l-232 -249l278 -439q3 -6 1 -10t-8 -4h-83q-9 0 -18 15l-237 367l-99 -108v-264q0 -10 -10 -10h-66q-10 0 -10 10v697q0 10 10 10h66q10 0 10 -10z" />
<glyph unicode="L" horiz-adv-x="591" d="M86 10v697q0 10 10 10h66q10 0 10 -10v-625h368q10 0 10 -10v-62q0 -10 -10 -10h-444q-10 0 -10 10z" />
<glyph unicode="M" horiz-adv-x="817" d="M731 707v-697q0 -10 -10 -10h-66q-10 0 -10 10v573l-201 -454q-4 -9 -13 -9h-45q-9 0 -13 9l-201 454v-573q0 -10 -10 -10h-66q-10 0 -10 10v697q0 10 10 10h98q12 0 16 -10l199 -456l198 456q4 10 17 10h97q10 0 10 -10z" />
<glyph unicode="N" horiz-adv-x="712" d="M616 0h-78q-14 0 -17 8l-349 574v-572q0 -10 -10 -10h-66q-10 0 -10 10v697q0 10 10 10h79q13 0 16 -8l350 -574v572q0 10 10 10h65q11 0 11 -10v-697q0 -10 -11 -10z" />
<glyph unicode="O" horiz-adv-x="786" d="M393 -10q-65 0 -125 23.5t-108.5 67.5t-77.5 116t-29 161t29 161t77.5 116.5t108.5 68t125 23.5t125 -23.5t108.5 -68t77.5 -116.5t29 -161t-29 -161t-77.5 -116t-108.5 -67.5t-125 -23.5zM393 72q107 0 178.5 73t71.5 213t-71.5 213.5t-178.5 73.5t-178.5 -73.5 t-71.5 -213.5t71.5 -213t178.5 -73z" />
<glyph unicode="P" horiz-adv-x="620" d="M86 10v697q0 10 10 10h248q114 0 174 -52t60 -148t-60 -148t-174 -52h-172v-307q0 -10 -10 -10h-66q-10 0 -10 10zM172 635v-236h185q66 0 98 28.5t32 89.5t-32 89.5t-98 28.5h-185z" />
<glyph unicode="Q" horiz-adv-x="786" d="M393 -10q-65 0 -125 23.5t-108.5 67.5t-77.5 116t-29 161t29 161t77.5 116.5t108.5 68t125 23.5t125 -23.5t108.5 -68t77.5 -116.5t29 -161q0 -144 -78 -244l64 -61q4 -4 4 -7t-4 -7l-46 -48q-4 -4 -7 -4q-4 0 -8 4l-65 62q-87 -63 -200 -63zM520 246l74 -72 q49 71 49 184q0 140 -71.5 213.5t-178.5 73.5t-178.5 -73.5t-71.5 -213.5t71.5 -213t178.5 -73q80 0 139 40l-72 71q-4 4 -4 7q0 4 4 8l46 48q4 4 7 4t7 -4z" />
<glyph unicode="R" horiz-adv-x="629" d="M86 10v697q0 10 10 10h253q103 0 160 -49t57 -141q0 -135 -134 -180l157 -337q4 -10 -8 -10h-72q-8 0 -14 10l-156 328h-167v-328q0 -10 -10 -10h-66q-10 0 -10 10zM172 635v-215h183q64 0 94.5 26t30.5 81q0 108 -125 108h-183z" />
<glyph unicode="S" horiz-adv-x="604" d="M55 536q0 90 69.5 140.5t171.5 50.5q111 0 177.5 -58.5t68.5 -141.5q0 -10 -11 -10h-65q-10 0 -10 10q-3 52 -48.5 85t-111.5 33q-67 0 -111 -28t-44 -77q0 -28 13.5 -49t42.5 -36.5t57.5 -25.5t76.5 -23q54 -14 92.5 -30t72.5 -38.5t51.5 -55t17.5 -73.5 q0 -107 -72 -163t-192 -56q-113 0 -188.5 63.5t-75.5 163.5q0 10 10 10h66q10 0 10 -10q2 -63 51 -104t127 -41q178 0 178 132q0 21 -10.5 38.5t-26 29t-42.5 23t-49.5 18.5t-58.5 16q-117 30 -177 76t-60 131z" />
<glyph unicode="T" horiz-adv-x="577" d="M26 645v62q0 10 10 10h506q10 0 10 -10v-62q0 -10 -10 -10h-210v-625q0 -10 -10 -10h-66q-10 0 -10 10v625h-210q-10 0 -10 10z" />
<glyph unicode="U" horiz-adv-x="655" d="M70 248v459q0 10 10 10h65q11 0 11 -10v-448q0 -91 44.5 -139t127.5 -48t127.5 48t44.5 139v448q0 10 10 10h65q11 0 11 -10v-459q0 -120 -72.5 -189t-185.5 -69t-185.5 69t-72.5 189z" />
<glyph unicode="V" horiz-adv-x="638" d="M628 707l-250 -697q-3 -10 -11 -10h-95q-8 0 -11 10l-250 697q-3 10 8 10h80q10 0 13 -10l207 -605l208 605q3 10 13 10h80q11 0 8 -10z" />
<glyph unicode="W" horiz-adv-x="856" d="M839 707l-159 -697q-3 -10 -11 -10h-94q-8 0 -11 10l-136 534l-136 -534q-3 -10 -11 -10h-94q-8 0 -11 10l-159 697q-3 10 9 10h72q10 0 13 -10l130 -593l137 543q3 11 12 11h76q9 0 12 -11l137 -543l130 593q1 10 13 10h72q12 0 9 -10z" />
<glyph unicode="X" horiz-adv-x="610" d="M137 707l168 -253l168 253q7 10 14 10h79q5 0 7 -3t0 -7l-217 -329l244 -368q2 -4 0 -7t-7 -3h-77q-9 0 -16 10l-195 293l-194 -293q-7 -10 -17 -10h-77q-5 0 -7 3t0 7l244 368l-217 329q-2 4 0 7t7 3h79q7 0 14 -10z" />
<glyph unicode="Y" horiz-adv-x="559" d="M550 707l-227 -443v-254q0 -10 -11 -10h-65q-10 0 -10 10v254l-228 443q-5 10 6 10h81q9 0 13 -8l171 -340l171 340q4 8 12 8h81q11 0 6 -10z" />
<glyph unicode="Z" horiz-adv-x="620" d="M59 645v62q0 10 11 10h474q10 0 10 -10v-62q0 -8 -6 -17l-402 -546h419q10 0 10 -10v-62q0 -10 -10 -10h-513q-10 0 -10 10v62q0 8 6 17l403 546h-381q-11 0 -11 10z" />
<glyph unicode="[" horiz-adv-x="418" d="M86 -193v900q0 10 10 10h259q11 0 11 -10v-62q0 -10 -11 -10h-183v-756h183q11 0 11 -10v-62q0 -10 -11 -10h-259q-10 0 -10 10z" />
<glyph unicode="\" horiz-adv-x="493" d="M108 707l355 -697q4 -10 -6 -10h-71q-10 0 -14 10l-356 697q-4 10 7 10h70q11 0 15 -10z" />
<glyph unicode="]" horiz-adv-x="418" d="M333 707v-900q0 -10 -10 -10h-260q-10 0 -10 10v62q0 10 10 10h184v756h-184q-10 0 -10 10v62q0 10 10 10h260q10 0 10 -10z" />
<glyph unicode="^" horiz-adv-x="569" d="M113 380h-72q-5 0 -6.5 3t0.5 7l196 317q5 10 14 10h80q8 0 13 -10l197 -317q2 -4 0 -7t-7 -3h-71q-10 0 -15 10l-157 261l-158 -261q-5 -10 -14 -10z" />
<glyph unicode="_" horiz-adv-x="574" d="M77 0h421q10 0 10 -10v-60q0 -10 -10 -10h-421q-10 0 -10 10v60q0 10 10 10z" />
<glyph unicode="`" horiz-adv-x="388" d="M218 707l71 -129q1 -2 1 -5q0 -6 -6 -6h-60q-10 0 -18 10l-106 130q-2 3 -2 5q0 5 7 5h98q9 0 15 -10z" />
<glyph unicode="a" horiz-adv-x="551" d="M142 361h-65q-7 0 -7 7q0 6 1 10q16 63 69 104.5t138 41.5q90 0 146.5 -49.5t56.5 -129.5v-247q0 -53 18 -88q2 -4 2 -5q0 -5 -8 -5h-81q-11 0 -11 10v53q-54 -73 -168 -73q-73 0 -128.5 43t-55.5 120q0 82 58.5 126.5t149.5 44.5q62 0 144 -23v29q0 58 -32 88.5 t-91 30.5q-91 0 -121 -78q-4 -10 -15 -10zM401 225q-69 23 -139 23q-58 0 -93.5 -22.5t-35.5 -67.5q0 -44 29 -68t81 -24q68 0 113 42.5t45 116.5z" />
<glyph unicode="b" horiz-adv-x="610" d="M82 10v697q0 10 10 10h60q10 0 10 -10v-252q71 69 168 69q103 0 166 -73.5t63 -193.5t-63 -193.5t-166 -73.5q-105 0 -168 68v-48q0 -10 -10 -10h-60q-10 0 -10 10zM154 257q0 -86 44 -138.5t118 -52.5q76 0 117.5 52t41.5 139t-41.5 139.5t-117.5 52.5q-74 0 -118 -53 t-44 -139z" />
<glyph unicode="c" horiz-adv-x="580" d="M305 449q-77 0 -123.5 -51t-46.5 -141t46.5 -140.5t123.5 -50.5q53 0 91.5 26.5t54.5 75.5q3 9 14 9h62q8 0 8 -6t-1 -10q-20 -79 -79 -125t-150 -46q-115 0 -184.5 75t-69.5 192t69.5 192t184.5 75q91 0 150 -46t79 -125q1 -4 1 -10t-8 -6h-62q-11 0 -14 9 q-16 49 -54.5 76t-91.5 27z" />
<glyph unicode="d" horiz-adv-x="610" d="M528 707v-697q0 -10 -10 -10h-59q-10 0 -10 10v48q-63 -68 -168 -68q-103 0 -166.5 74t-63.5 193t63.5 193t166.5 74q97 0 168 -69v252q0 10 10 10h59q10 0 10 -10zM457 257q0 86 -44.5 139t-118.5 53q-76 0 -117.5 -52.5t-41.5 -139.5t41.5 -139t117.5 -52 q74 0 118.5 52.5t44.5 138.5z" />
<glyph unicode="e" horiz-adv-x="607" d="M548 232h-411q6 -76 52 -121t120 -45q112 0 151 94q3 9 14 9h67q7 0 7 -7q0 -4 -2 -10q-58 -162 -239 -162q-116 0 -186 75.5t-70 191.5q0 114 73 190.5t183 76.5q113 0 182 -77t69 -188v-16q0 -11 -10 -11zM307 449q-61 0 -107 -37t-59 -104h331q-12 63 -57 102t-108 39 z" />
<glyph unicode="f" horiz-adv-x="382" d="M356 438h-157v-428q0 -10 -11 -10h-59q-10 0 -10 10v428h-84q-10 0 -10 11v55q0 10 10 10h84v66q0 64 40.5 105.5t105.5 41.5q56 0 99 -19q8 -4 8 -18v-54q0 -9 -6 -9q-5 0 -9 2q-45 22 -90 22q-32 0 -50 -21t-18 -58v-58h157q11 0 11 -10v-55q0 -11 -11 -11z" />
<glyph unicode="g" horiz-adv-x="595" d="M302 -213q-92 0 -154 44t-67 123q0 10 10 10h60q10 0 10 -10q12 -46 45 -68.5t96 -22.5q73 0 107.5 44.5t34.5 121.5v37q-72 -64 -163 -64q-99 0 -164.5 72t-65.5 189q0 118 64.5 189.5t165.5 71.5q102 0 163 -66v46q0 10 11 10h59q10 0 10 -10v-473q0 -117 -56 -180.5 t-166 -63.5zM453 263q0 84 -43 135t-116 51q-75 0 -117 -50.5t-42 -135.5t42 -135t117 -50q73 0 116 50.5t43 134.5z" />
<glyph unicode="h" horiz-adv-x="591" d="M82 10v697q0 10 10 10h60q10 0 10 -10v-269q32 38 81.5 62t98.5 24q83 0 130.5 -46t47.5 -131v-337q0 -10 -10 -10h-59q-11 0 -11 10v317q0 122 -119 122q-64 0 -111.5 -50.5t-47.5 -134.5v-254q0 -10 -10 -10h-60q-10 0 -10 10z" />
<glyph unicode="i" horiz-adv-x="219" d="M70 10v494q0 10 10 10h59q11 0 11 -10v-494q0 -10 -11 -10h-59q-10 0 -10 10zM55 618v89q0 10 11 10h88q10 0 10 -10v-89q0 -10 -10 -10h-88q-11 0 -11 10z" />
<glyph unicode="j" horiz-adv-x="219" d="M70 -40v544q0 10 10 10h59q11 0 11 -10v-532q0 -96 -33 -177q-3 -8 -8 -8q-3 0 -8 2l-54 20q-10 3 -7 12q30 80 30 139zM55 618v89q0 10 11 10h88q10 0 10 -10v-89q0 -10 -10 -10h-88q-11 0 -11 10z" />
<glyph unicode="k" horiz-adv-x="540" d="M492 499l-183 -170l207 -314q2 -3 2 -7q0 -8 -9 -8h-72q-11 0 -16 9l-174 261l-85 -81v-179q0 -10 -10 -10h-60q-10 0 -10 10v697q0 10 10 10h60q10 0 10 -10v-412l224 210q9 9 16 9h85q9 0 9 -7q0 -4 -4 -8z" />
<glyph unicode="l" horiz-adv-x="243" d="M82 10v697q0 10 10 10h60q10 0 10 -10v-697q0 -10 -10 -10h-60q-10 0 -10 10z" />
<glyph unicode="m" horiz-adv-x="815" d="M82 10v494q0 10 10 10h60q10 0 10 -10v-57q17 31 57 54t81 23q107 0 143 -83q22 37 62.5 60t85.5 23q152 0 152 -157v-357q0 -10 -10 -10h-59q-10 0 -10 10v342q0 97 -94 97q-50 0 -83.5 -49t-33.5 -130v-260q0 -10 -11 -10h-59q-10 0 -10 10v342q0 97 -93 97 q-50 0 -84 -49t-34 -130v-260q0 -10 -10 -10h-60q-10 0 -10 10z" />
<glyph unicode="n" horiz-adv-x="583" d="M82 10v494q0 10 10 10h60q10 0 10 -10v-59q66 79 170 79q82 0 130 -48.5t48 -137.5v-328q0 -10 -10 -10h-60q-10 0 -10 10v316q0 123 -117 123q-67 0 -109 -48.5t-42 -138.5v-252q0 -10 -10 -10h-60q-10 0 -10 10z" />
<glyph unicode="o" horiz-adv-x="624" d="M51 257q0 120 74.5 193.5t186.5 73.5t186.5 -73.5t74.5 -193.5t-74.5 -193.5t-186.5 -73.5t-186.5 73.5t-74.5 193.5zM135 257q0 -86 49 -138.5t128 -52.5t128 52.5t49 138.5t-49 139t-128 53t-128 -53t-49 -139z" />
<glyph unicode="p" horiz-adv-x="610" d="M82 -193v697q0 10 10 10h60q10 0 10 -10v-48q63 68 168 68q103 0 166 -73.5t63 -193.5t-63 -193.5t-166 -73.5q-97 0 -168 69v-252q0 -10 -10 -10h-60q-10 0 -10 10zM154 257q0 -86 44 -138.5t118 -52.5q76 0 117.5 52t41.5 139t-41.5 139.5t-117.5 52.5q-74 0 -118 -53 t-44 -139z" />
<glyph unicode="q" horiz-adv-x="610" d="M528 504v-697q0 -10 -10 -10h-59q-10 0 -10 10v252q-71 -69 -168 -69q-103 0 -166.5 74t-63.5 193t63.5 193t166.5 74q105 0 168 -68v48q0 10 10 10h59q10 0 10 -10zM457 257q0 86 -44.5 139t-118.5 53q-76 0 -117.5 -52.5t-41.5 -139.5t41.5 -139t117.5 -52 q74 0 118.5 52.5t44.5 138.5z" />
<glyph unicode="r" horiz-adv-x="442" d="M409 489v-61q0 -11 -12 -11q-61 32 -110 32q-55 0 -90 -46t-35 -114v-279q0 -10 -10 -10h-60q-10 0 -10 10v494q0 10 10 10h60q10 0 10 -10v-57q57 77 149 77q35 0 85 -16q11 -4 13 -19z" />
<glyph unicode="s" horiz-adv-x="512" d="M464 151q0 -76 -57 -118.5t-149 -42.5q-91 0 -153.5 48t-62.5 119q0 10 10 10h66q9 0 10 -10q6 -44 40.5 -67.5t92.5 -23.5q119 0 119 74q0 38 -34 56.5t-116 31.5q-93 14 -134 48.5t-41 101.5q0 68 55 107t140 39t136.5 -39.5t60.5 -107.5q0 -10 -10 -10h-57 q-7 0 -10 10q-11 36 -45 54t-78 18q-51 0 -81.5 -17.5t-30.5 -51.5q0 -36 32 -54t113 -32q87 -15 135.5 -46t48.5 -97z" />
<glyph unicode="t" horiz-adv-x="430" d="M208 514h170q10 0 10 -10v-55q0 -11 -10 -11h-170v-285q0 -87 81 -87q54 0 97 15q4 2 7 2q7 0 7 -10v-48q0 -15 -8 -18q-46 -17 -109 -17q-72 0 -113.5 41t-41.5 114v293h-91q-10 0 -10 11v55q0 10 10 10h91v148q0 10 10 10h60q10 0 10 -10v-148z" />
<glyph unicode="u" horiz-adv-x="583" d="M502 504v-494q0 -10 -10 -10h-60q-10 0 -10 10v59q-66 -79 -170 -79q-82 0 -130 48.5t-48 137.5v328q0 10 10 10h59q11 0 11 -10v-316q0 -122 116 -122q67 0 109.5 48t42.5 138v252q0 10 10 10h60q10 0 10 -10z" />
<glyph unicode="v" horiz-adv-x="497" d="M486 498l-189 -488q-4 -10 -12 -10h-72q-8 0 -12 10l-190 488q-1 2 -1 7q0 9 9 9h69q11 0 14 -10l147 -403l146 403q3 10 15 10h68q9 0 9 -9q0 -5 -1 -7z" />
<glyph unicode="w" horiz-adv-x="763" d="M751 499l-157 -489q-2 -10 -13 -10h-73q-10 0 -13 10l-113 376l-113 -376q-3 -10 -13 -10h-73q-11 0 -13 10l-157 489q-1 4 -1 8q0 7 8 7h71q11 0 14 -10l113 -400l114 375q3 10 11 10h78q8 0 11 -10l114 -375l112 400q3 10 15 10h70q9 0 9 -7q0 -4 -1 -8z" />
<glyph unicode="x" horiz-adv-x="497" d="M126 507l123 -172l123 172q5 7 14 7h73q7 0 7 -7q0 -2 -2 -6l-167 -232l185 -256q3 -4 3 -8q0 -5 -6 -5h-78q-8 0 -14 10l-138 195l-138 -195q-6 -10 -15 -10h-78q-6 0 -6 5q0 3 3 8l186 256l-167 232q-2 4 -2 6q0 7 7 7h73q9 0 14 -7z" />
<glyph unicode="y" horiz-adv-x="495" d="M94 514q11 0 14 -10l151 -391l129 391q3 10 13 10h71q8 0 8 -7q0 -4 -1 -7l-187 -550q-31 -90 -73.5 -126.5t-103.5 -36.5q-39 0 -76 16q-10 6 -10 17v55q0 10 8 10q4 0 25.5 -11t48.5 -11q40 0 64.5 30.5t43.5 99.5l-205 505q-2 6 -2 8q0 8 8 8h74z" />
<glyph unicode="z" horiz-adv-x="494" d="M47 449v55q0 10 10 10h369q10 0 10 -10v-55q0 -11 -8 -22l-294 -351h311q11 0 11 -10v-56q0 -10 -11 -10h-401q-10 0 -10 10v56q0 7 6 15l299 357h-282q-10 0 -10 11z" />
<glyph unicode="{" horiz-adv-x="397" d="M219 165v-179q0 -107 69 -107h46q10 0 10 -10v-62q0 -10 -10 -10h-48q-86 0 -119.5 47t-33.5 153v151q0 68 -64 68h-27q-10 0 -10 10v62q0 10 10 10h27q64 0 64 68v151q0 106 33.5 153t119.5 47h48q10 0 10 -10v-62q0 -10 -10 -10h-46q-69 0 -69 -107v-179q0 -71 -64 -92 q64 -21 64 -92z" />
<glyph unicode="|" horiz-adv-x="258" d="M86 -92v799q0 10 10 10h66q10 0 10 -10v-799q0 -10 -10 -10h-66q-10 0 -10 10z" />
<glyph unicode="}" horiz-adv-x="397" d="M178 -14v179q0 71 65 92q-65 21 -65 92v179q0 54 -16 80.5t-52 26.5h-47q-10 0 -10 10v62q0 10 10 10h49q86 0 119 -47t33 -153v-151q0 -68 65 -68h26q11 0 11 -10v-62q0 -10 -11 -10h-26q-65 0 -65 -68v-151q0 -106 -33 -153t-119 -47h-49q-10 0 -10 10v62q0 10 10 10 h47q36 0 52 26.5t16 80.5z" />
<glyph unicode="~" horiz-adv-x="556" d="M59 373q23 17 57 27t61 10q46 0 104.5 -21t93.5 -21q39 0 79 25q4 2 7 2q5 0 10 -8l34 -51q1 -2 1 -4q0 -8 -9 -14q-48 -36 -118 -36q-46 0 -104.5 21t-93.5 21q-38 0 -79 -26q-4 -2 -7 -2q-5 0 -10 8l-34 51q-1 2 -1 4q0 8 9 14z" />
<glyph unicode="&#xa1;" horiz-adv-x="329" d="M187 -203h-65q-10 0 -10 10v499q0 10 10 10h65q11 0 11 -10v-499q0 -10 -11 -10zM196 412h-82q-11 0 -11 10v82q0 10 11 10h82q10 0 10 -10v-82q0 -10 -10 -10z" />
<glyph unicode="&#xa2;" horiz-adv-x="580" d="M257 10v84q-94 16 -150 88.5t-56 175.5t56 175.5t150 88.5v85q0 10 10 10h66q10 0 10 -10v-83q75 -10 124 -54.5t67 -114.5q1 -4 1 -11q0 -6 -8 -6h-62q-11 0 -14 9q-26 81 -108 99v-375q82 18 108 98q4 10 14 10h62q8 0 8 -7q0 -6 -1 -10q-18 -71 -67 -115.5t-124 -53.5 v-83q0 -10 -10 -10h-66q-10 0 -10 10zM135 358q0 -75 32.5 -123.5t89.5 -62.5v372q-57 -14 -89.5 -62.5t-32.5 -123.5z" />
<glyph unicode="&#xa3;" horiz-adv-x="602" d="M140 285q0 22 -2 33h-83q-10 0 -10 11v59q0 10 10 10h58q-21 57 -21 110q0 98 61 158.5t156 60.5q100 0 160 -59t60 -144q0 -10 -10 -10h-65q-11 0 -11 10q-2 51 -38.5 86t-95.5 35q-61 0 -96 -36t-35 -101q0 -17 3 -33t6 -25.5t10 -26.5t10 -25h210q10 0 10 -10v-59 q0 -11 -10 -11h-193q2 -24 2 -38q0 -107 -67 -198h380q10 0 10 -10v-62q0 -10 -10 -10h-461q-10 0 -10 10v72q0 9 8 20q37 48 50.5 84t13.5 99z" />
<glyph unicode="&#xa4;" horiz-adv-x="552" d="M60 106l50 50q-32 50 -32 113q0 64 32 114l-50 49q-7 7 0 14l39 39q7 7 15 0l49 -49q51 32 113 32q61 0 114 -32l49 49q7 7 15 0l39 -39q7 -7 0 -14l-50 -49q32 -52 32 -114q0 -61 -32 -113l50 -50q7 -7 0 -14l-39 -39q-8 -7 -15 0l-49 49q-46 -31 -114 -31t-113 31 l-49 -49q-8 -7 -15 0l-39 39q-7 7 0 14zM154 269q0 -59 33.5 -94t88.5 -35q56 0 89.5 35.5t33.5 93.5t-33.5 93.5t-89.5 35.5q-55 0 -88.5 -35t-33.5 -94z" />
<glyph unicode="&#xa5;" horiz-adv-x="559" d="M59 344h137l-187 363q-3 10 6 10h82q9 0 12 -8l171 -340l171 340q3 8 11 8h82q9 0 6 -10l-186 -363h144q10 0 10 -10v-60q0 -10 -10 -10h-185v-68h164q11 0 11 -11v-59q0 -10 -11 -10h-164v-106q0 -10 -11 -10h-65q-10 0 -10 10v106h-157q-10 0 -10 10v59q0 11 10 11h157 v68h-178q-10 0 -10 10v60q0 10 10 10z" />
<glyph unicode="&#xa6;" horiz-adv-x="258" d="M86 328v379q0 10 10 10h66q10 0 10 -10v-379q0 -11 -10 -11h-66q-10 0 -10 11zM86 -193v379q0 11 10 11h66q10 0 10 -11v-379q0 -10 -10 -10h-66q-10 0 -10 10z" />
<glyph unicode="&#xa7;" horiz-adv-x="515" d="M461 -26q0 -85 -58.5 -136t-146.5 -51q-93 0 -151.5 56.5t-58.5 136.5q0 10 10 10h66q10 0 10 -10q3 -51 35.5 -81t88.5 -30q54 0 86.5 29.5t32.5 75.5q0 41 -33.5 72t-104.5 70q-104 57 -144 94.5t-40 92.5q0 67 44 117q-51 51 -51 120q0 85 58.5 136t146.5 51 q93 0 151.5 -56t58.5 -136q0 -11 -10 -11h-66q-10 0 -10 11q-3 51 -35.5 80.5t-88.5 29.5q-54 0 -86.5 -29.5t-32.5 -75.5q0 -41 33.5 -72t104.5 -70q104 -57 144 -94.5t40 -92.5q0 -67 -44 -117q51 -51 51 -120zM200 347l-34 20q-27 -29 -27 -60q0 -29 32.5 -56t135.5 -84 l34 -20q27 29 27 60q0 29 -32.5 56t-135.5 84z" />
<glyph unicode="&#xa8;" horiz-adv-x="436" d="M82 625v82q0 10 10 10h82q10 0 10 -10v-82q0 -11 -10 -11h-82q-10 0 -10 11zM252 625v82q0 10 10 10h82q10 0 10 -10v-82q0 -11 -10 -11h-82q-10 0 -10 11z" />
<glyph unicode="&#xa9;" horiz-adv-x="819" d="M410 -10q-90 0 -170 41.5t-133.5 127.5t-53.5 199q0 86 31 157.5t82.5 116.5t114.5 70t129 25t129 -25t114 -70t82 -116.5t31 -157.5t-31 -157t-82 -116.5t-114 -70t-129 -24.5zM410 33q124 0 215.5 86t91.5 239q0 104 -46 180t-114 111t-147 35q-124 0 -216 -86.5 t-92 -239.5t92 -239t216 -86zM577 283h24q11 0 11 -11q-13 -69 -68.5 -110.5t-133.5 -41.5q-87 0 -151 62.5t-64 175.5t64 176t151 63q78 0 133.5 -42t68.5 -111q0 -10 -11 -10h-24q-12 0 -15 10q-12 49 -52 79.5t-100 30.5q-68 0 -117 -52.5t-49 -143.5t49 -143t117 -52 q60 0 100 30t52 79q3 11 15 11z" />
<glyph unicode="&#xaa;" horiz-adv-x="473" d="M403 707v-362q0 -10 -10 -10h-39q-10 0 -10 10v32q-43 -50 -122 -50q-75 0 -124.5 54.5t-49.5 143.5t49.5 144.5t124.5 55.5q78 0 122 -51v33q0 10 10 10h39q10 0 10 -10zM350 525q0 63 -33 104t-87 41t-87 -41t-33 -104t32.5 -103t87.5 -40t87.5 40t32.5 103z" />
<glyph unicode="&#xab;" horiz-adv-x="563" d="M507 525v-86q0 -10 -7 -16l-154 -142l154 -143q7 -6 7 -16v-86q0 -7 -6 -7q-3 0 -6 3l-219 201q-10 9 -10 19v57q0 10 10 19l219 201q3 3 6 3q6 0 6 -7zM289 525v-86q0 -10 -7 -16l-154 -142l154 -143q7 -6 7 -16v-86q0 -7 -6 -7q-4 0 -7 3l-218 201q-10 9 -10 19v57 q0 10 10 19l218 201q3 3 7 3q6 0 6 -7z" />
<glyph unicode="&#xac;" horiz-adv-x="571" d="M410 330h-334q-10 0 -10 10v55q0 11 10 11h403q10 0 10 -11v-205q0 -10 -10 -10h-59q-10 0 -10 10v140z" />
<glyph unicode="&#xad;" horiz-adv-x="526" d="M77 390h373q10 0 10 -10v-59q0 -11 -10 -11h-373q-10 0 -10 11v59q0 10 10 10z" />
<glyph unicode="&#xae;" horiz-adv-x="819" d="M410 -10q-90 0 -170 41.5t-133.5 127.5t-53.5 199q0 86 31 157.5t82.5 116.5t114.5 70t129 25t129 -25t114 -70t82 -116.5t31 -157.5t-31 -157t-82 -116.5t-114 -70t-129 -24.5zM410 33q124 0 215.5 86t91.5 239q0 104 -46 180t-114 111t-147 35q-124 0 -216 -86.5 t-92 -239.5t92 -239t216 -86zM268 136v447q0 11 12 11h139q72 0 110 -35.5t38 -94.5q0 -48 -25.5 -81t-68.5 -45l100 -202q2 -4 2 -7q0 -4 -6 -4h-28q-13 0 -17 9l-100 198h-107v-196q0 -11 -11 -11h-26q-12 0 -12 11zM317 551v-176h109q92 0 92 89q0 87 -92 87h-109z" />
<glyph unicode="&#xaf;" horiz-adv-x="305" d="M46 621v51q0 10 10 10h193q10 0 10 -10v-51q0 -11 -10 -11h-193q-10 0 -10 11z" />
<glyph unicode="&#xb0;" horiz-adv-x="460" d="M51 553q0 77 51 125.5t128 48.5t128.5 -49t51.5 -125t-51.5 -125t-128.5 -49t-128 48.5t-51 125.5zM123 553q0 -51 30 -81t77 -30t77.5 30t30.5 81t-30.5 81t-77.5 30t-77 -30t-30 -81z" />
<glyph unicode="&#xb1;" horiz-adv-x="585" d="M77 80h432q10 0 10 -10v-60q0 -10 -10 -10h-432q-10 0 -10 10v60q0 10 10 10zM333 580v-177h176q10 0 10 -10v-59q0 -10 -10 -10h-176v-177q0 -10 -10 -10h-60q-10 0 -10 10v177h-176q-10 0 -10 10v59q0 10 10 10h176v177q0 10 10 10h60q10 0 10 -10z" />
<glyph unicode="&#xb2;" horiz-adv-x="362" d="M50 344v31q0 9 6 14l159 137q39 33 39 76q0 29 -19.5 47.5t-51.5 18.5q-30 0 -47.5 -19t-21.5 -48q-1 -10 -11 -10h-40q-10 0 -10 10q1 52 37 87t93 35q60 0 95 -35.5t35 -84.5q0 -67 -59 -118l-115 -96h172q11 0 11 -10v-35q0 -10 -11 -10h-251q-10 0 -10 10z" />
<glyph unicode="&#xb3;" horiz-adv-x="364" d="M140 517v35q0 10 11 10h20q67 0 67 56q0 22 -18 38t-45 16q-54 0 -62 -52q-1 -9 -11 -9h-36q-11 0 -11 10q2 44 35.5 73t84.5 29q55 0 87.5 -27.5t32.5 -73.5q0 -55 -46 -82q62 -29 62 -95q0 -52 -39 -84.5t-97 -32.5q-57 0 -95 32.5t-38 82.5q0 11 10 11h40q8 0 10 -11 q12 -60 73 -60q33 0 55 16.5t22 45.5q0 30 -19.5 46t-53.5 16h-28q-11 0 -11 10z" />
<glyph unicode="&#xb4;" horiz-adv-x="388" d="M99 578l71 129q6 10 15 10h98q7 0 7 -5q0 -2 -2 -5l-106 -130q-8 -10 -18 -10h-60q-6 0 -6 6q0 3 1 5z" />
<glyph unicode="&#xb5;" horiz-adv-x="583" d="M502 504v-494q0 -10 -10 -10h-60q-10 0 -10 10v59q-66 -79 -170 -79q-57 0 -98 23v-206q0 -10 -11 -10h-59q-10 0 -10 10v697q0 10 10 10h59q11 0 11 -10v-316q0 -122 116 -122q67 0 109.5 48t42.5 138v252q0 10 10 10h60q10 0 10 -10z" />
<glyph unicode="&#xb6;" horiz-adv-x="649" d="M245 717h365q11 0 11 -10v-62q0 -10 -11 -10h-73v-727q0 -10 -11 -10h-65q-10 0 -10 10v727h-96v-727q0 -10 -10 -10h-65q-11 0 -11 10v430h-24q-98 0 -153.5 50.5t-55.5 137.5q0 88 55.5 139.5t153.5 51.5z" />
<glyph unicode="&#xb7;" horiz-adv-x="296" d="M109 408h77q11 0 11 -11v-78q0 -10 -11 -10h-77q-11 0 -11 10v78q0 11 11 11z" />
<glyph unicode="&#xb8;" horiz-adv-x="278" d="M68 -105l-14 13q-2 2 -2 4t2 8l35 109q3 10 10 10h45q14 0 9 -10l-39 -91q24 7 56 7q40 0 63.5 -20t23.5 -53q0 -85 -115 -85q-53 0 -96 10q-10 3 -10 10v30q0 10 10 10q3 0 14 -2.5t30.5 -5.5t44.5 -3q24 0 39 8.5t15 23.5q0 32 -53 32q-22 0 -54 -8q-4 -1 -6 -1 q-4 0 -8 4z" />
<glyph unicode="&#xb9;" horiz-adv-x="227" d="M110 344v300l-68 -37q-4 -3 -9 -3q-8 0 -8 8v43q0 7 7 11l86 47q8 4 15 4h24q10 0 10 -10v-363q0 -10 -10 -10h-37q-10 0 -10 10z" />
<glyph unicode="&#xba;" horiz-adv-x="473" d="M48 525q0 89 53.5 144.5t135.5 55.5t135 -55.5t53 -144.5t-53 -143.5t-135 -54.5t-135.5 54.5t-53.5 143.5zM110 525q0 -62 36 -102.5t91 -40.5t91 40.5t36 102.5q0 63 -36 104t-91 41t-91 -41.5t-36 -103.5z" />
<glyph unicode="&#xbb;" horiz-adv-x="563" d="M56 439v86q0 7 6 7q4 0 7 -3l218 -201q10 -9 10 -19v-57q0 -10 -10 -19l-218 -201q-3 -3 -7 -3q-6 0 -6 7v86q0 10 7 16l154 143l-154 142q-7 6 -7 16zM274 439v86q0 7 7 7q3 0 6 -3l218 -201q10 -9 10 -19v-57q0 -10 -10 -19l-218 -201q-3 -3 -6 -3q-7 0 -7 7v86 q0 9 8 16l153 143l-153 142q-8 7 -8 16z" />
<glyph unicode="&#xbc;" horiz-adv-x="821" d="M118 41l566 673q6 8 14 0l28 -24q7 -7 2 -14l-566 -673q-7 -8 -15 0l-27 24q-7 7 -2 14zM153 344v300l-68 -37q-5 -3 -9 -3q-8 0 -8 8v43q0 7 7 11l86 47q8 4 15 4h24q10 0 10 -10v-363q0 -10 -10 -10h-37q-10 0 -10 10zM628 10v63h-172q-11 0 -11 10v29q0 4 5 12 l180 252q5 7 11 7h34q10 0 10 -10v-245h49q10 0 10 -10v-35q0 -10 -10 -10h-49v-63q0 -10 -10 -10h-37q-10 0 -10 10zM628 285l-112 -157h112v157z" />
<glyph unicode="&#xbd;" horiz-adv-x="894" d="M118 41l566 673q6 8 14 0l28 -24q7 -7 2 -14l-566 -673q-7 -8 -15 0l-27 24q-7 7 -2 14zM153 344v300l-68 -37q-5 -3 -9 -3q-8 0 -8 8v43q0 7 7 11l86 47q8 4 15 4h24q10 0 10 -10v-363q0 -10 -10 -10h-37q-10 0 -10 10zM552 10v31q0 9 6 14l159 138q22 19 30.5 34.5 t8.5 40.5q0 29 -19.5 47.5t-51.5 18.5q-30 0 -48 -19t-22 -48q-1 -10 -10 -10h-40q-10 0 -10 10q1 52 37 87t93 35q60 0 95 -35.5t35 -84.5q0 -66 -59 -117l-115 -97h172q10 0 10 -10v-35q0 -10 -10 -10h-251q-10 0 -10 10z" />
<glyph unicode="&#xbe;" horiz-adv-x="839" d="M151 41l566 673q6 8 14 0l28 -24q7 -7 2 -14l-566 -673q-7 -8 -15 0l-27 24q-7 7 -2 14zM660 10v63h-172q-10 0 -10 10v29q0 6 4 12l181 252q5 7 11 7h34q10 0 10 -10v-245h49q10 0 10 -10v-35q0 -10 -10 -10h-49v-63q0 -10 -10 -10h-37q-11 0 -11 10zM660 285l-111 -157 h111v157zM150 517v35q0 10 10 10h20q67 0 67 56q0 22 -18 38t-45 16q-54 0 -62 -52q-2 -9 -10 -9h-37q-10 0 -10 10q2 45 35 73.5t84 28.5q55 0 87.5 -27.5t32.5 -73.5q0 -55 -46 -82q63 -30 63 -95q0 -52 -39.5 -84.5t-97.5 -32.5q-57 0 -95 32.5t-38 82.5q0 11 10 11h40 q9 0 11 -11q12 -60 72 -60q33 0 55 16.5t22 45.5q0 30 -19.5 46t-53.5 16h-28q-10 0 -10 10z" />
<glyph unicode="&#xbf;" horiz-adv-x="583" d="M507 -10q-3 -85 -63.5 -144t-160.5 -59q-98 0 -156.5 54.5t-58.5 141.5q0 41 18 73.5t43.5 55t51 44t43.5 50t18 62.5v38q0 10 10 10h65q11 0 11 -10v-31q0 -45 -18 -81.5t-43.5 -60t-51 -45t-43.5 -47.5t-18 -57q0 -54 35 -84.5t94 -30.5q56 0 94.5 31.5t45.5 89.5 q1 10 10 10h64q10 0 10 -10zM326 412h-82q-11 0 -11 10v82q0 10 11 10h82q10 0 10 -10v-82q0 -10 -10 -10z" />
<glyph unicode="&#xc0;" horiz-adv-x="641" d="M538 10l-71 198h-293l-71 -198q-3 -10 -12 -10h-68q-12 0 -12 10q0 3 1 6l254 691q3 10 10 10h89q7 0 10 -10l254 -691q1 -3 1 -6q0 -10 -12 -10h-68q-9 0 -12 10zM321 613l-117 -323h233zM291 909l70 -129q1 -2 1 -4q0 -6 -6 -6h-59q-11 0 -18 9l-106 130q-2 3 -2 5 q0 6 7 6h97q10 0 16 -11z" />
<glyph unicode="&#xc1;" horiz-adv-x="641" d="M538 10l-71 198h-293l-71 -198q-3 -10 -12 -10h-68q-12 0 -12 10q0 3 1 6l254 691q3 10 10 10h89q7 0 10 -10l254 -691q1 -3 1 -6q0 -10 -12 -10h-68q-9 0 -12 10zM321 613l-117 -323h233zM267 780l71 129q6 11 15 11h98q7 0 7 -6q0 -2 -2 -5l-106 -130q-8 -9 -18 -9h-60 q-6 0 -6 6q0 2 1 4z" />
<glyph unicode="&#xc2;" horiz-adv-x="641" d="M538 10l-71 198h-293l-71 -198q-3 -10 -12 -10h-68q-12 0 -12 10q0 3 1 6l254 691q3 10 10 10h89q7 0 10 -10l254 -691q1 -3 1 -6q0 -10 -12 -10h-68q-9 0 -12 10zM321 613l-117 -323h233zM357 911l108 -131q3 -4 1.5 -7t-6.5 -3h-64q-9 0 -18 9l-65 65l-64 -65 q-9 -9 -19 -9h-63q-5 0 -6.5 3t1.5 7l107 131q7 9 16 9h57q8 0 15 -9z" />
<glyph unicode="&#xc3;" horiz-adv-x="641" d="M538 10l-71 198h-293l-71 -198q-3 -10 -12 -10h-68q-12 0 -12 10q0 3 1 6l254 691q3 10 10 10h89q7 0 10 -10l254 -691q1 -3 1 -6q0 -10 -12 -10h-68q-9 0 -12 10zM321 613l-117 -323h233zM153 883q49 37 100 37q40 0 75.5 -21t60.5 -21q23 0 63 25q4 2 7 2q6 0 10 -8 l29 -43q4 -7 -9 -17q-49 -37 -100 -37q-41 0 -76 21t-60 21q-22 0 -63 -26q-4 -2 -7 -2q-5 0 -10 8l-29 43q-5 8 9 18z" />
<glyph unicode="&#xc4;" horiz-adv-x="641" d="M538 10l-71 198h-293l-71 -198q-3 -10 -12 -10h-68q-12 0 -12 10q0 3 1 6l254 691q3 10 10 10h89q7 0 10 -10l254 -691q1 -3 1 -6q0 -10 -12 -10h-68q-9 0 -12 10zM321 613l-117 -323h233zM177 827v82q0 11 10 11h82q11 0 11 -11v-82q0 -10 -11 -10h-82q-10 0 -10 10z M347 827v82q0 11 10 11h82q11 0 11 -11v-82q0 -10 -11 -10h-82q-10 0 -10 10z" />
<glyph unicode="&#xc5;" horiz-adv-x="641" d="M538 10l-71 198h-293l-71 -198q-3 -10 -12 -10h-68q-12 0 -12 10q0 3 1 6l254 691q3 10 10 10h89q7 0 10 -10l254 -691q1 -3 1 -6q0 -10 -12 -10h-68q-9 0 -12 10zM321 613l-117 -323h233zM224 854q0 38 25 62t64 24t64 -24t25 -62t-25 -62t-64 -24t-64 24t-25 62z M273 854q0 -19 11 -30t29 -11t29 11t11 30t-11 30t-29 11t-29 -11t-11 -30z" />
<glyph unicode="&#xc6;" horiz-adv-x="896" d="M470 336v-254h353q11 0 11 -10v-62q0 -10 -11 -10h-429q-10 0 -10 10v198h-201l-79 -198q-3 -10 -12 -10h-69q-12 0 -12 10q0 3 1 6l278 691q3 10 10 10h508q10 0 10 -10v-62q0 -10 -10 -10h-338v-217h307q10 0 10 -10v-62q0 -10 -10 -10h-307zM353 635l-137 -345h168 v345h-31z" />
<glyph unicode="&#xc7;" horiz-adv-x="723" d="M306 -105l-13 13q-2 2 -2 4q0 1 2 7l22 77q-112 20 -187 113t-75 249q0 176 95 272.5t225 96.5q120 0 205 -67.5t101 -181.5q0 -10 -11 -10h-63q-9 0 -12 10q-48 167 -220 167q-98 0 -164 -73.5t-66 -213.5t66 -213t164 -73q172 0 220 167q3 10 12 10h63q11 0 11 -10 q-16 -114 -100 -181t-204 -68l-23 -52q24 7 57 7q40 0 63.5 -20t23.5 -53q0 -85 -115 -85q-53 0 -96 10q-11 3 -11 10v30q0 10 11 10q3 0 14 -2.5t30.5 -5.5t44.5 -3q24 0 39 8.5t15 23.5q0 32 -53 32q-22 0 -54 -8q-4 -1 -7 -1q-4 0 -8 4z" />
<glyph unicode="&#xc8;" horiz-adv-x="588" d="M163 336v-254h353q10 0 10 -10v-62q0 -10 -10 -10h-429q-10 0 -10 10v697q0 10 10 10h414q10 0 10 -10v-62q0 -10 -10 -10h-338v-217h307q10 0 10 -10v-62q0 -10 -10 -10h-307zM288 909l70 -129q1 -2 1 -4q0 -6 -6 -6h-59q-12 0 -19 9l-105 130q-2 3 -2 5q0 6 7 6h97 q10 0 16 -11z" />
<glyph unicode="&#xc9;" horiz-adv-x="598" d="M172 336v-254h353q11 0 11 -10v-62q0 -10 -11 -10h-429q-10 0 -10 10v697q0 10 10 10h414q10 0 10 -10v-62q0 -10 -10 -10h-338v-217h307q10 0 10 -10v-62q0 -10 -10 -10h-307zM237 780l70 129q6 11 16 11h97q7 0 7 -6q0 -2 -2 -5l-106 -130q-7 -9 -18 -9h-59q-6 0 -6 6 q0 2 1 4z" />
<glyph unicode="&#xca;" horiz-adv-x="598" d="M172 336v-254h353q11 0 11 -10v-62q0 -10 -11 -10h-429q-10 0 -10 10v697q0 10 10 10h414q10 0 10 -10v-62q0 -10 -10 -10h-338v-217h307q10 0 10 -10v-62q0 -10 -10 -10h-307zM349 911l108 -131q3 -4 1.5 -7t-6.5 -3h-64q-9 0 -18 9l-65 65l-64 -65q-9 -9 -19 -9h-63 q-5 0 -6.5 3t1.5 7l107 131q8 9 15 9h58q8 0 15 -9z" />
<glyph unicode="&#xcb;" horiz-adv-x="588" d="M163 336v-254h353q10 0 10 -10v-62q0 -10 -10 -10h-429q-10 0 -10 10v697q0 10 10 10h414q10 0 10 -10v-62q0 -10 -10 -10h-338v-217h307q10 0 10 -10v-62q0 -10 -10 -10h-307zM159 827v82q0 11 10 11h82q10 0 10 -11v-82q0 -10 -10 -10h-82q-10 0 -10 10zM329 827v82 q0 11 10 11h82q10 0 10 -11v-82q0 -10 -10 -10h-82q-10 0 -10 10z" />
<glyph unicode="&#xcc;" horiz-adv-x="258" d="M86 10v697q0 10 10 10h66q10 0 10 -10v-697q0 -10 -10 -10h-66q-10 0 -10 10zM111 909l70 -129q1 -2 1 -4q0 -6 -6 -6h-59q-11 0 -19 9l-105 130q-2 3 -2 5q0 6 7 6h97q10 0 16 -11z" />
<glyph unicode="&#xcd;" horiz-adv-x="258" d="M86 10v697q0 10 10 10h66q10 0 10 -10v-697q0 -10 -10 -10h-66q-10 0 -10 10zM78 780l70 129q6 11 16 11h97q7 0 7 -6q0 -2 -2 -5l-105 -130q-7 -9 -19 -9h-59q-6 0 -6 6q0 2 1 4z" />
<glyph unicode="&#xce;" horiz-adv-x="258" d="M86 10v697q0 10 10 10h66q10 0 10 -10v-697q0 -10 -10 -10h-66q-10 0 -10 10zM172 911l108 -131q3 -4 1 -7t-7 -3h-63q-9 0 -18 9l-65 65l-65 -65q-9 -9 -18 -9h-63q-5 0 -7 3t1 7l108 131q7 9 15 9h58q7 0 15 -9z" />
<glyph unicode="&#xcf;" horiz-adv-x="258" d="M86 10v697q0 10 10 10h66q10 0 10 -10v-697q0 -10 -10 -10h-66q-10 0 -10 10zM-7 827v82q0 11 10 11h82q10 0 10 -11v-82q0 -10 -10 -10h-82q-10 0 -10 10zM163 827v82q0 11 10 11h82q10 0 10 -11v-82q0 -10 -10 -10h-82q-10 0 -10 10z" />
<glyph unicode="&#xd0;" horiz-adv-x="693" d="M104 398v309q0 10 11 10h198q141 0 234 -93.5t93 -265.5t-93 -265t-234 -93h-198q-11 0 -11 10v308h-82q-11 0 -11 11v59q0 10 11 10h82zM190 398h163q11 0 11 -10v-59q0 -11 -11 -11h-163v-236h111q113 0 181 69t68 207t-68 207.5t-181 69.5h-111v-237z" />
<glyph unicode="&#xd1;" horiz-adv-x="712" d="M616 0h-78q-14 0 -17 8l-349 574v-572q0 -10 -10 -10h-66q-10 0 -10 10v697q0 10 10 10h79q13 0 16 -8l350 -574v572q0 10 10 10h65q11 0 11 -10v-697q0 -10 -11 -10zM191 883q49 37 101 37q40 0 75.5 -21t60.5 -21q22 0 62 25q4 2 8 2q6 0 10 -8l29 -43q4 -7 -9 -17 q-49 -37 -100 -37q-41 0 -76 21t-60 21q-22 0 -63 -26q-4 -2 -7 -2q-5 0 -10 8l-29 43q-5 8 8 18z" />
<glyph unicode="&#xd2;" horiz-adv-x="786" d="M393 -10q-65 0 -125 23.5t-108.5 67.5t-77.5 116t-29 161t29 161t77.5 116.5t108.5 68t125 23.5t125 -23.5t108.5 -68t77.5 -116.5t29 -161t-29 -161t-77.5 -116t-108.5 -67.5t-125 -23.5zM393 72q107 0 178.5 73t71.5 213t-71.5 213.5t-178.5 73.5t-178.5 -73.5 t-71.5 -213.5t71.5 -213t178.5 -73zM381 909l71 -129q1 -2 1 -4q0 -6 -7 -6h-59q-11 0 -18 9l-106 130q-2 3 -2 5q0 6 7 6h98q9 0 15 -11z" />
<glyph unicode="&#xd3;" horiz-adv-x="786" d="M393 -10q-65 0 -125 23.5t-108.5 67.5t-77.5 116t-29 161t29 161t77.5 116.5t108.5 68t125 23.5t125 -23.5t108.5 -68t77.5 -116.5t29 -161t-29 -161t-77.5 -116t-108.5 -67.5t-125 -23.5zM393 72q107 0 178.5 73t71.5 213t-71.5 213.5t-178.5 73.5t-178.5 -73.5 t-71.5 -213.5t71.5 -213t178.5 -73zM321 780l70 129q6 11 16 11h97q7 0 7 -6q0 -2 -2 -5l-106 -130q-7 -9 -18 -9h-59q-7 0 -7 6z" />
<glyph unicode="&#xd4;" horiz-adv-x="786" d="M393 -10q-65 0 -125 23.5t-108.5 67.5t-77.5 116t-29 161t29 161t77.5 116.5t108.5 68t125 23.5t125 -23.5t108.5 -68t77.5 -116.5t29 -161t-29 -161t-77.5 -116t-108.5 -67.5t-125 -23.5zM393 72q107 0 178.5 73t71.5 213t-71.5 213.5t-178.5 73.5t-178.5 -73.5 t-71.5 -213.5t71.5 -213t178.5 -73zM437 911l108 -131q3 -4 1.5 -7t-6.5 -3h-64q-9 0 -18 9l-65 65l-64 -65q-9 -9 -19 -9h-63q-5 0 -6.5 3t1.5 7l107 131q7 9 16 9h57q8 0 15 -9z" />
<glyph unicode="&#xd5;" horiz-adv-x="786" d="M393 -10q-65 0 -125 23.5t-108.5 67.5t-77.5 116t-29 161t29 161t77.5 116.5t108.5 68t125 23.5t125 -23.5t108.5 -68t77.5 -116.5t29 -161t-29 -161t-77.5 -116t-108.5 -67.5t-125 -23.5zM393 72q107 0 178.5 73t71.5 213t-71.5 213.5t-178.5 73.5t-178.5 -73.5 t-71.5 -213.5t71.5 -213t178.5 -73zM225 883q49 37 101 37q40 0 75.5 -21t60.5 -21q22 0 62 25q4 2 7 2q7 0 11 -8l28 -43q5 -8 -8 -17q-49 -37 -100 -37q-41 0 -76 21t-60 21q-22 0 -63 -26q-4 -2 -7 -2q-5 0 -10 8l-29 43q-5 8 8 18z" />
<glyph unicode="&#xd6;" horiz-adv-x="786" d="M393 -10q-65 0 -125 23.5t-108.5 67.5t-77.5 116t-29 161t29 161t77.5 116.5t108.5 68t125 23.5t125 -23.5t108.5 -68t77.5 -116.5t29 -161t-29 -161t-77.5 -116t-108.5 -67.5t-125 -23.5zM393 72q107 0 178.5 73t71.5 213t-71.5 213.5t-178.5 73.5t-178.5 -73.5 t-71.5 -213.5t71.5 -213t178.5 -73zM257 827v82q0 11 10 11h82q10 0 10 -11v-82q0 -10 -10 -10h-82q-10 0 -10 10zM427 827v82q0 11 10 11h82q10 0 10 -11v-82q0 -10 -10 -10h-82q-10 0 -10 10z" />
<glyph unicode="&#xd7;" horiz-adv-x="518" d="M440 475l-125 -125l125 -125q4 -4 4 -7t-4 -7l-42 -42q-4 -4 -7 -4t-7 4l-125 125l-125 -125q-4 -4 -7 -4t-7 4l-42 42q-4 4 -4 7t4 7l125 125l-125 125q-4 4 -4 7t4 7l42 42q5 5 7 5t7 -5l125 -124l125 124q5 5 7 5t7 -5l42 -42q4 -4 4 -7t-4 -7z" />
<glyph unicode="&#xd8;" horiz-adv-x="786" d="M393 -10q-88 0 -161 40l-43 -74q-5 -8 -14 -4l-28 16q-9 6 -4 15l44 75q-134 102 -134 300q0 89 29 161t77.5 116.5t108.5 68t125 23.5q87 0 161 -40l43 74q5 8 14 4l28 -16q9 -6 4 -15l-44 -76q134 -102 134 -300q0 -89 -29 -161t-77.5 -116t-108.5 -67.5t-125 -23.5z M393 72q107 0 178.5 73t71.5 213q0 152 -86 228l-284 -486q53 -28 120 -28zM143 358q0 -151 86 -227l284 485q-55 29 -120 29q-107 0 -178.5 -73.5t-71.5 -213.5z" />
<glyph unicode="&#xd9;" horiz-adv-x="655" d="M70 248v459q0 10 10 10h65q11 0 11 -10v-448q0 -91 44.5 -139t127.5 -48t127.5 48t44.5 139v448q0 10 10 10h65q11 0 11 -10v-459q0 -120 -72.5 -189t-185.5 -69t-185.5 69t-72.5 189zM315 909l71 -129q1 -2 1 -4q0 -6 -6 -6h-59q-12 0 -19 9l-105 130q-2 3 -2 5q0 6 7 6 h97q9 0 15 -11z" />
<glyph unicode="&#xda;" horiz-adv-x="655" d="M70 248v459q0 10 10 10h65q11 0 11 -10v-448q0 -91 44.5 -139t127.5 -48t127.5 48t44.5 139v448q0 10 10 10h65q11 0 11 -10v-459q0 -120 -72.5 -189t-185.5 -69t-185.5 69t-72.5 189zM264 780l71 129q6 11 15 11h97q8 0 8 -6q0 -2 -2 -5l-106 -130q-7 -9 -18 -9h-60 q-6 0 -6 6q0 2 1 4z" />
<glyph unicode="&#xdb;" horiz-adv-x="655" d="M70 248v459q0 10 10 10h65q11 0 11 -10v-448q0 -91 44.5 -139t127.5 -48t127.5 48t44.5 139v448q0 10 10 10h65q11 0 11 -10v-459q0 -120 -72.5 -189t-185.5 -69t-185.5 69t-72.5 189zM372 911l107 -131q3 -4 1.5 -7t-6.5 -3h-63q-10 0 -19 9l-64 65l-65 -65 q-9 -9 -18 -9h-64q-5 0 -6.5 3t1.5 7l108 131q8 9 15 9h57q8 0 16 -9z" />
<glyph unicode="&#xdc;" horiz-adv-x="655" d="M70 248v459q0 10 10 10h65q11 0 11 -10v-448q0 -91 44.5 -139t127.5 -48t127.5 48t44.5 139v448q0 10 10 10h65q11 0 11 -10v-459q0 -120 -72.5 -189t-185.5 -69t-185.5 69t-72.5 189zM191 827v82q0 11 11 11h82q10 0 10 -11v-82q0 -10 -10 -10h-82q-11 0 -11 10z M361 827v82q0 11 11 11h82q10 0 10 -11v-82q0 -10 -10 -10h-82q-11 0 -11 10z" />
<glyph unicode="&#xdd;" horiz-adv-x="559" d="M550 707l-227 -443v-254q0 -10 -11 -10h-65q-10 0 -10 10v254l-228 443q-5 10 6 10h81q9 0 13 -8l171 -340l171 340q4 8 12 8h81q11 0 6 -10zM222 780l71 129q6 11 15 11h98q7 0 7 -6q0 -2 -2 -5l-106 -130q-7 -9 -18 -9h-60q-6 0 -6 6q0 2 1 4z" />
<glyph unicode="&#xde;" horiz-adv-x="620" d="M86 10v697q0 10 10 10h66q10 0 10 -10v-149h172q114 0 174 -52t60 -148q0 -95 -60 -147t-174 -52h-172v-149q0 -10 -10 -10h-66q-10 0 -10 10zM172 476v-235h185q66 0 98 28.5t32 88.5q0 61 -32 89.5t-98 28.5h-185z" />
<glyph unicode="&#xdf;" horiz-adv-x="638" d="M413 -10q-79 0 -130.5 48t-53.5 116q0 10 11 10h57q7 0 10 -10q9 -37 37 -62.5t69 -25.5q99 0 99 100q0 35 -19 59.5t-46 38t-54.5 27t-46.5 37t-19 58.5q0 27 14.5 49t31.5 35t31.5 34.5t14.5 46.5q0 45 -30 72.5t-82 27.5q-55 0 -85.5 -32.5t-30.5 -92.5v-516 q0 -10 -10 -10h-59q-10 0 -10 10v428h-77q-10 0 -10 11v55q0 10 10 10h77v33q0 77 54.5 128.5t140.5 51.5q87 0 139.5 -47t52.5 -125q0 -36 -14.5 -63.5t-31.5 -41t-31.5 -30.5t-14.5 -34q0 -18 19.5 -32.5t47 -28t55.5 -31.5t47.5 -50t19.5 -76q0 -82 -52 -130t-131 -48z " />
<glyph unicode="&#xe0;" horiz-adv-x="551" d="M142 361h-65q-7 0 -7 7q0 6 1 10q16 63 69 104.5t138 41.5q90 0 146.5 -49.5t56.5 -129.5v-247q0 -53 18 -88q2 -4 2 -5q0 -5 -8 -5h-81q-11 0 -11 10v53q-54 -73 -168 -73q-73 0 -128.5 43t-55.5 120q0 82 58.5 126.5t149.5 44.5q62 0 144 -23v29q0 58 -32 88.5 t-91 30.5q-91 0 -121 -78q-4 -10 -15 -10zM401 225q-69 23 -139 23q-58 0 -93.5 -22.5t-35.5 -67.5q0 -44 29 -68t81 -24q68 0 113 42.5t45 116.5zM259 707l71 -129q1 -2 1 -5q0 -6 -6 -6h-60q-10 0 -18 10l-106 130q-2 3 -2 5q0 5 7 5h98q9 0 15 -10z" />
<glyph unicode="&#xe1;" horiz-adv-x="551" d="M142 361h-65q-7 0 -7 7q0 6 1 10q16 63 69 104.5t138 41.5q90 0 146.5 -49.5t56.5 -129.5v-247q0 -53 18 -88q2 -4 2 -5q0 -5 -8 -5h-81q-11 0 -11 10v53q-54 -73 -168 -73q-73 0 -128.5 43t-55.5 120q0 82 58.5 126.5t149.5 44.5q62 0 144 -23v29q0 58 -32 88.5 t-91 30.5q-91 0 -121 -78q-4 -10 -15 -10zM401 225q-69 23 -139 23q-58 0 -93.5 -22.5t-35.5 -67.5q0 -44 29 -68t81 -24q68 0 113 42.5t45 116.5zM212 578l71 129q6 10 15 10h97q7 0 7 -5q0 -2 -2 -5l-105 -130q-8 -10 -19 -10h-59q-6 0 -6 6q0 3 1 5z" />
<glyph unicode="&#xe2;" horiz-adv-x="551" d="M142 361h-65q-7 0 -7 7q0 6 1 10q16 63 69 104.5t138 41.5q90 0 146.5 -49.5t56.5 -129.5v-247q0 -53 18 -88q2 -4 2 -5q0 -5 -8 -5h-81q-11 0 -11 10v53q-54 -73 -168 -73q-73 0 -128.5 43t-55.5 120q0 82 58.5 126.5t149.5 44.5q62 0 144 -23v29q0 58 -32 88.5 t-91 30.5q-91 0 -121 -78q-4 -10 -15 -10zM401 225q-69 23 -139 23q-58 0 -93.5 -22.5t-35.5 -67.5q0 -44 29 -68t81 -24q68 0 113 42.5t45 116.5zM322 709l107 -131q3 -4 1.5 -7.5t-6.5 -3.5h-64q-8 0 -18 10l-64 64l-65 -64q-10 -10 -18 -10h-64q-5 0 -6.5 3.5t1.5 7.5 l107 131q7 8 16 8h57q9 0 16 -8z" />
<glyph unicode="&#xe3;" horiz-adv-x="551" d="M142 361h-65q-7 0 -7 7q0 6 1 10q16 63 69 104.5t138 41.5q90 0 146.5 -49.5t56.5 -129.5v-247q0 -53 18 -88q2 -4 2 -5q0 -5 -8 -5h-81q-11 0 -11 10v53q-54 -73 -168 -73q-73 0 -128.5 43t-55.5 120q0 82 58.5 126.5t149.5 44.5q62 0 144 -23v29q0 58 -32 88.5 t-91 30.5q-91 0 -121 -78q-4 -10 -15 -10zM401 225q-69 23 -139 23q-58 0 -93.5 -22.5t-35.5 -67.5q0 -44 29 -68t81 -24q68 0 113 42.5t45 116.5zM114 680q49 37 100 37q40 0 75.5 -21t60.5 -21q23 0 63 25q4 2 7 2q6 0 10 -8l29 -43q5 -8 -8 -17q-49 -37 -101 -37 q-41 0 -76 21t-60 21q-21 0 -62 -26q-4 -2 -8 -2t-10 9l-29 43q-4 7 9 17z" />
<glyph unicode="&#xe4;" horiz-adv-x="551" d="M142 361h-65q-7 0 -7 7q0 6 1 10q16 63 69 104.5t138 41.5q90 0 146.5 -49.5t56.5 -129.5v-247q0 -53 18 -88q2 -4 2 -5q0 -5 -8 -5h-81q-11 0 -11 10v53q-54 -73 -168 -73q-73 0 -128.5 43t-55.5 120q0 82 58.5 126.5t149.5 44.5q62 0 144 -23v29q0 58 -32 88.5 t-91 30.5q-91 0 -121 -78q-4 -10 -15 -10zM401 225q-69 23 -139 23q-58 0 -93.5 -22.5t-35.5 -67.5q0 -44 29 -68t81 -24q68 0 113 42.5t45 116.5zM141 625v82q0 10 11 10h81q11 0 11 -10v-82q0 -11 -11 -11h-81q-11 0 -11 11zM311 625v82q0 10 11 10h81q11 0 11 -10v-82 q0 -11 -11 -11h-81q-11 0 -11 11z" />
<glyph unicode="&#xe5;" horiz-adv-x="551" d="M142 361h-65q-7 0 -7 7q0 6 1 10q16 63 69 104.5t138 41.5q90 0 146.5 -49.5t56.5 -129.5v-247q0 -53 18 -88q2 -4 2 -5q0 -5 -8 -5h-81q-11 0 -11 10v53q-54 -73 -168 -73q-73 0 -128.5 43t-55.5 120q0 82 58.5 126.5t149.5 44.5q62 0 144 -23v29q0 58 -32 88.5 t-91 30.5q-91 0 -121 -78q-4 -10 -15 -10zM401 225q-69 23 -139 23q-58 0 -93.5 -22.5t-35.5 -67.5q0 -44 29 -68t81 -24q68 0 113 42.5t45 116.5zM189 651q0 37 25.5 61.5t64.5 24.5t64 -24t25 -62t-25 -62t-64 -24t-64.5 24.5t-25.5 61.5zM239 651q0 -19 11 -30t29 -11 t28.5 11t10.5 30t-10.5 30t-28.5 11t-29 -11t-11 -30z" />
<glyph unicode="&#xe6;" horiz-adv-x="955" d="M142 361h-65q-7 0 -7 7q0 6 1 10q16 63 69 104.5t138 41.5q61 0 108.5 -25t72.5 -68q75 93 197 93q113 0 182 -77t69 -188v-16q0 -11 -10 -11h-410q6 -76 51.5 -121t119.5 -45q112 0 151 94q3 9 14 9h67q7 0 7 -7q0 -4 -2 -10q-58 -162 -239 -162q-141 0 -211 107 q-31 -50 -83 -78.5t-119 -28.5q-80 0 -137 42.5t-57 120.5q0 82 58.5 126.5t149.5 44.5q65 0 144 -22v28q0 58 -32 88.5t-91 30.5q-91 0 -121 -78q-4 -10 -15 -10zM401 224q-72 24 -139 24q-58 0 -93.5 -22.5t-35.5 -67.5q0 -44 29 -68t81 -24q68 0 113 42t45 116zM656 449 q-61 0 -107 -37t-59 -104h331q-12 63 -57 102t-108 39z" />
<glyph unicode="&#xe7;" horiz-adv-x="580" d="M242 -105l-14 13q-2 2 -2 4q0 1 2 7l24 76q-92 17 -146.5 88.5t-54.5 173.5q0 117 69.5 192t184.5 75q91 0 150 -46t79 -125q1 -4 1 -10t-8 -6h-62q-11 0 -14 9q-16 49 -54.5 76t-91.5 27q-77 0 -123.5 -51t-46.5 -141t46.5 -140.5t123.5 -50.5q53 0 91.5 26.5t54.5 75.5 q3 9 14 9h62q8 0 8 -6t-1 -10q-20 -78 -77.5 -124t-146.5 -47l-22 -52q24 7 56 7q40 0 63.5 -20t23.5 -53q0 -85 -115 -85q-53 0 -96 10q-10 3 -10 10v30q0 10 10 10q3 0 14 -2.5t30.5 -5.5t44.5 -3q24 0 39.5 8.5t15.5 23.5q0 14 -14.5 23t-39.5 9q-22 0 -54 -8 q-4 -1 -6 -1q-4 0 -8 4z" />
<glyph unicode="&#xe8;" horiz-adv-x="607" d="M548 232h-411q6 -76 52 -121t120 -45q112 0 151 94q3 9 14 9h67q7 0 7 -7q0 -4 -2 -10q-58 -162 -239 -162q-116 0 -186 75.5t-70 191.5q0 114 73 190.5t183 76.5q113 0 182 -77t69 -188v-16q0 -11 -10 -11zM307 449q-61 0 -107 -37t-59 -104h331q-12 63 -57 102t-108 39 zM301 707l71 -129q1 -2 1 -5q0 -6 -6 -6h-60q-10 0 -18 10l-106 130q-2 3 -2 5q0 5 7 5h98q9 0 15 -10z" />
<glyph unicode="&#xe9;" horiz-adv-x="607" d="M548 232h-411q6 -76 52 -121t120 -45q112 0 151 94q3 9 14 9h67q7 0 7 -7q0 -4 -2 -10q-58 -162 -239 -162q-116 0 -186 75.5t-70 191.5q0 114 73 190.5t183 76.5q113 0 182 -77t69 -188v-16q0 -11 -10 -11zM307 449q-61 0 -107 -37t-59 -104h331q-12 63 -57 102t-108 39 zM228 578l71 129q6 10 15 10h98q7 0 7 -5q0 -2 -2 -5l-106 -130q-8 -10 -18 -10h-60q-6 0 -6 6q0 3 1 5z" />
<glyph unicode="&#xea;" horiz-adv-x="607" d="M548 232h-411q6 -76 52 -121t120 -45q112 0 151 94q3 9 14 9h67q7 0 7 -7q0 -4 -2 -10q-58 -162 -239 -162q-116 0 -186 75.5t-70 191.5q0 114 73 190.5t183 76.5q113 0 182 -77t69 -188v-16q0 -11 -10 -11zM307 449q-61 0 -107 -37t-59 -104h331q-12 63 -57 102t-108 39 zM355 709l108 -131q3 -4 1.5 -7.5t-6.5 -3.5h-64q-8 0 -18 10l-65 64l-64 -64q-10 -10 -19 -10h-63q-5 0 -6.5 3.5t1.5 7.5l107 131q7 8 16 8h57q8 0 15 -8z" />
<glyph unicode="&#xeb;" horiz-adv-x="607" d="M548 232h-411q6 -76 52 -121t120 -45q112 0 151 94q3 9 14 9h67q7 0 7 -7q0 -4 -2 -10q-58 -162 -239 -162q-116 0 -186 75.5t-70 191.5q0 114 73 190.5t183 76.5q113 0 182 -77t69 -188v-16q0 -11 -10 -11zM307 449q-61 0 -107 -37t-59 -104h331q-12 63 -57 102t-108 39 zM171 625v82q0 10 10 10h82q10 0 10 -10v-82q0 -11 -10 -11h-82q-10 0 -10 11zM341 625v82q0 10 10 10h82q10 0 10 -10v-82q0 -11 -10 -11h-82q-10 0 -10 11z" />
<glyph unicode="&#xec;" horiz-adv-x="219" d="M70 10v494q0 10 10 10h59q11 0 11 -10v-494q0 -10 -11 -10h-59q-10 0 -10 10zM99 707l71 -129q1 -2 1 -5q0 -6 -6 -6h-60q-10 0 -18 10l-105 130q-2 3 -2 5q0 5 7 5h97q9 0 15 -10z" />
<glyph unicode="&#xed;" horiz-adv-x="219" d="M70 10v494q0 10 10 10h59q11 0 11 -10v-494q0 -10 -11 -10h-59q-10 0 -10 10zM50 578l71 129q6 10 15 10h97q8 0 8 -5q0 -2 -2 -5l-106 -130q-8 -10 -18 -10h-60q-6 0 -6 6q0 3 1 5z" />
<glyph unicode="&#xee;" horiz-adv-x="219" d="M70 10v494q0 10 10 10h59q11 0 11 -10v-494q0 -10 -11 -10h-59q-10 0 -10 10zM154 709l107 -131q3 -4 1.5 -7.5t-6.5 -3.5h-63q-9 0 -19 10l-64 64l-65 -64q-10 -10 -18 -10h-64q-5 0 -6.5 3.5t1.5 7.5l108 131q7 8 15 8h57q9 0 16 -8z" />
<glyph unicode="&#xef;" horiz-adv-x="219" d="M70 10v494q0 10 10 10h59q11 0 11 -10v-494q0 -10 -11 -10h-59q-10 0 -10 10zM-27 625v82q0 10 11 10h82q10 0 10 -10v-82q0 -11 -10 -11h-82q-11 0 -11 11zM143 625v82q0 10 11 10h82q10 0 10 -10v-82q0 -11 -10 -11h-82q-11 0 -11 11z" />
<glyph unicode="&#xf0;" horiz-adv-x="595" d="M239 548l-19 48q-4 8 6 13l54 21q-38 13 -98 19q-10 2 -8 15l9 51q2 9 15 7q108 -12 184 -54l95 38q10 4 13 -6l19 -48q3 -10 -6 -13l-58 -23q49 -50 74.5 -130.5t25.5 -175.5q0 -163 -65.5 -241.5t-181.5 -78.5q-109 0 -178 73t-69 194t67 194t175 73q97 0 147 -60 q-20 80 -80 121l-108 -42q-10 -4 -13 5zM135 257q0 -88 42.5 -139.5t120.5 -51.5q72 0 117.5 52t45.5 139q0 85 -46 138.5t-117 53.5q-77 0 -120 -52t-43 -140z" />
<glyph unicode="&#xf1;" horiz-adv-x="583" d="M82 10v494q0 10 10 10h60q10 0 10 -10v-59q66 79 170 79q82 0 130 -48.5t48 -137.5v-328q0 -10 -10 -10h-60q-10 0 -10 10v316q0 123 -117 123q-67 0 -109 -48.5t-42 -138.5v-252q0 -10 -10 -10h-60q-10 0 -10 10zM129 680q49 37 100 37q40 0 76 -21t61 -21q22 0 62 25 q4 2 7 2q6 0 10 -8l29 -43q5 -8 -8 -17q-49 -37 -100 -37q-41 0 -76.5 21t-60.5 21q-21 0 -62 -26q-4 -2 -7 -2q-4 0 -10 9l-29 43q-5 8 8 17z" />
<glyph unicode="&#xf2;" horiz-adv-x="624" d="M51 257q0 120 74.5 193.5t186.5 73.5t186.5 -73.5t74.5 -193.5t-74.5 -193.5t-186.5 -73.5t-186.5 73.5t-74.5 193.5zM135 257q0 -86 49 -138.5t128 -52.5t128 52.5t49 138.5t-49 139t-128 53t-128 -53t-49 -139zM302 707l71 -129q1 -2 1 -5q0 -6 -6 -6h-60q-10 0 -18 10 l-106 130q-2 3 -2 5q0 5 7 5h98q9 0 15 -10z" />
<glyph unicode="&#xf3;" horiz-adv-x="624" d="M51 257q0 120 74.5 193.5t186.5 73.5t186.5 -73.5t74.5 -193.5t-74.5 -193.5t-186.5 -73.5t-186.5 73.5t-74.5 193.5zM135 257q0 -86 49 -138.5t128 -52.5t128 52.5t49 138.5t-49 139t-128 53t-128 -53t-49 -139zM233 578l71 129q6 10 15 10h98q7 0 7 -5q0 -2 -2 -5 l-106 -130q-8 -10 -18 -10h-59q-7 0 -7 6q0 3 1 5z" />
<glyph unicode="&#xf4;" horiz-adv-x="624" d="M51 257q0 120 74.5 193.5t186.5 73.5t186.5 -73.5t74.5 -193.5t-74.5 -193.5t-186.5 -73.5t-186.5 73.5t-74.5 193.5zM135 257q0 -86 49 -138.5t128 -52.5t128 52.5t49 138.5t-49 139t-128 53t-128 -53t-49 -139zM356 709l108 -131q3 -4 1.5 -7.5t-6.5 -3.5h-64 q-8 0 -18 10l-65 64l-64 -64q-10 -10 -19 -10h-63q-5 0 -6.5 3.5t1.5 7.5l107 131q7 8 16 8h57q8 0 15 -8z" />
<glyph unicode="&#xf5;" horiz-adv-x="624" d="M51 257q0 120 74.5 193.5t186.5 73.5t186.5 -73.5t74.5 -193.5t-74.5 -193.5t-186.5 -73.5t-186.5 73.5t-74.5 193.5zM135 257q0 -86 49 -138.5t128 -52.5t128 52.5t49 138.5t-49 139t-128 53t-128 -53t-49 -139zM144 680q49 37 101 37q40 0 75.5 -21t60.5 -21 q22 0 62 25q4 2 8 2q6 0 10 -8l28 -43q5 -8 -8 -17q-49 -37 -100 -37q-41 0 -76 21t-60 21q-22 0 -63 -26q-4 -2 -7 -2q-4 0 -10 9l-29 43q-5 8 8 17z" />
<glyph unicode="&#xf6;" horiz-adv-x="624" d="M51 257q0 120 74.5 193.5t186.5 73.5t186.5 -73.5t74.5 -193.5t-74.5 -193.5t-186.5 -73.5t-186.5 73.5t-74.5 193.5zM135 257q0 -86 49 -138.5t128 -52.5t128 52.5t49 138.5t-49 139t-128 53t-128 -53t-49 -139zM176 625v82q0 10 10 10h82q11 0 11 -10v-82 q0 -11 -11 -11h-82q-10 0 -10 11zM346 625v82q0 10 10 10h82q11 0 11 -10v-82q0 -11 -11 -11h-82q-10 0 -10 11z" />
<glyph unicode="&#xf7;" horiz-adv-x="585" d="M250 98h78q10 0 10 -10v-78q0 -10 -10 -10h-78q-10 0 -10 10v78q0 10 10 10zM250 514h78q10 0 10 -10v-78q0 -10 -10 -10h-78q-10 0 -10 10v78q0 10 10 10zM77 297h432q10 0 10 -10v-60q0 -10 -10 -10h-432q-10 0 -10 10v60q0 10 10 10z" />
<glyph unicode="&#xf8;" horiz-adv-x="624" d="M51 257q0 120 74.5 193.5t186.5 73.5q59 0 112 -22l32 54q6 8 14 4l28 -16q10 -6 4 -15l-32 -54q103 -75 103 -218q0 -120 -74.5 -193.5t-186.5 -73.5q-58 0 -111 22l-32 -54q-5 -8 -14 -4l-28 16q-10 6 -4 15l32 54q-104 76 -104 218zM489 257q0 97 -59 150l-190 -328 q32 -13 72 -13q79 0 128 52.5t49 138.5zM135 257q0 -95 60 -149l190 327q-34 14 -73 14q-79 0 -128 -53t-49 -139z" />
<glyph unicode="&#xf9;" horiz-adv-x="583" d="M502 504v-494q0 -10 -10 -10h-60q-10 0 -10 10v59q-66 -79 -170 -79q-82 0 -130 48.5t-48 137.5v328q0 10 10 10h59q11 0 11 -10v-316q0 -122 116 -122q67 0 109.5 48t42.5 138v252q0 10 10 10h60q10 0 10 -10zM276 707l71 -129q1 -2 1 -5q0 -6 -6 -6h-59q-11 0 -19 10 l-105 130q-2 3 -2 5q0 5 7 5h97q9 0 15 -10z" />
<glyph unicode="&#xfa;" horiz-adv-x="583" d="M502 504v-494q0 -10 -10 -10h-60q-10 0 -10 10v59q-66 -79 -170 -79q-82 0 -130 48.5t-48 137.5v328q0 10 10 10h59q11 0 11 -10v-316q0 -122 116 -122q67 0 109.5 48t42.5 138v252q0 10 10 10h60q10 0 10 -10zM211 578l71 129q6 10 15 10h97q7 0 7 -5q0 -2 -2 -5 l-105 -130q-8 -10 -19 -10h-59q-6 0 -6 6q0 3 1 5z" />
<glyph unicode="&#xfb;" horiz-adv-x="583" d="M502 504v-494q0 -10 -10 -10h-60q-10 0 -10 10v59q-66 -79 -170 -79q-82 0 -130 48.5t-48 137.5v328q0 10 10 10h59q11 0 11 -10v-316q0 -122 116 -122q67 0 109.5 48t42.5 138v252q0 10 10 10h60q10 0 10 -10zM333 709l107 -131q3 -4 1.5 -7.5t-6.5 -3.5h-63 q-9 0 -19 10l-64 64l-65 -64q-10 -10 -18 -10h-64q-5 0 -6.5 3.5t1.5 7.5l108 131q7 8 15 8h57q9 0 16 -8z" />
<glyph unicode="&#xfc;" horiz-adv-x="583" d="M502 504v-494q0 -10 -10 -10h-60q-10 0 -10 10v59q-66 -79 -170 -79q-82 0 -130 48.5t-48 137.5v328q0 10 10 10h59q11 0 11 -10v-316q0 -122 116 -122q67 0 109.5 48t42.5 138v252q0 10 10 10h60q10 0 10 -10zM151 625v82q0 10 10 10h82q10 0 10 -10v-82q0 -11 -10 -11 h-82q-10 0 -10 11zM321 625v82q0 10 10 10h82q10 0 10 -10v-82q0 -11 -10 -11h-82q-10 0 -10 11z" />
<glyph unicode="&#xfd;" horiz-adv-x="495" d="M94 514q11 0 14 -10l151 -391l129 391q3 10 13 10h71q8 0 8 -7q0 -4 -1 -7l-187 -550q-31 -90 -73.5 -126.5t-103.5 -36.5q-39 0 -76 16q-10 6 -10 17v55q0 10 8 10q4 0 25.5 -11t48.5 -11q40 0 64.5 30.5t43.5 99.5l-205 505q-2 6 -2 8q0 8 8 8h74zM191 578l71 129 q6 10 16 10h97q7 0 7 -5q0 -2 -2 -5l-106 -130q-8 -10 -18 -10h-59q-7 0 -7 6q0 3 1 5z" />
<glyph unicode="&#xfe;" horiz-adv-x="610" d="M82 -193v900q0 10 10 10h60q10 0 10 -10v-252q71 69 168 69q103 0 166 -73.5t63 -193.5t-63 -193.5t-166 -73.5q-105 0 -168 68v-251q0 -10 -10 -10h-60q-10 0 -10 10zM154 257q0 -86 44 -138.5t118 -52.5q76 0 117.5 52t41.5 139t-41.5 139.5t-117.5 52.5 q-74 0 -118 -53t-44 -139z" />
<glyph unicode="&#xff;" horiz-adv-x="495" d="M94 514q11 0 14 -10l151 -391l129 391q3 10 13 10h71q8 0 8 -7q0 -4 -1 -7l-187 -550q-31 -90 -73.5 -126.5t-103.5 -36.5q-39 0 -76 16q-10 6 -10 17v55q0 10 8 10q4 0 25.5 -11t48.5 -11q40 0 64.5 30.5t43.5 99.5l-205 505q-2 6 -2 8q0 8 8 8h74zM112 625v82 q0 10 10 10h82q10 0 10 -10v-82q0 -11 -10 -11h-82q-10 0 -10 11zM282 625v82q0 10 10 10h82q10 0 10 -10v-82q0 -11 -10 -11h-82q-10 0 -10 11z" />
<glyph unicode="&#x152;" horiz-adv-x="1159" d="M733 336v-254h353q11 0 11 -10v-62q0 -10 -11 -10h-429q-10 0 -10 10v93q-48 -56 -114.5 -84.5t-139.5 -28.5q-65 0 -125 23.5t-108.5 67.5t-77.5 116t-29 161t29 161t77.5 116.5t108.5 68t125 23.5q72 0 138.5 -29.5t115.5 -85.5v95q0 10 10 10h414q10 0 10 -10v-62 q0 -10 -10 -10h-338v-217h307q11 0 11 -10v-62q0 -10 -11 -10h-307zM393 72q107 0 178.5 73t71.5 213t-71.5 213.5t-178.5 73.5t-178.5 -73.5t-71.5 -213.5t71.5 -213t178.5 -73z" />
<glyph unicode="&#x153;" horiz-adv-x="1045" d="M986 232h-411q6 -76 52.5 -121t120.5 -45q111 0 150 94q3 9 14 9h67q7 0 7 -7q0 -4 -2 -10q-58 -162 -239 -162q-71 0 -126 30t-88 83q-34 -54 -91.5 -83.5t-127.5 -29.5q-112 0 -186.5 73.5t-74.5 193.5t74.5 193.5t186.5 73.5q70 0 128 -30t92 -85q33 54 89 84.5 t124 30.5q113 0 182 -77t69 -188v-16q0 -11 -10 -11zM135 257q0 -86 49 -138.5t128 -52.5q77 0 127 53t50 138t-50 138.5t-127 53.5q-79 0 -128 -53t-49 -139zM745 449q-61 0 -106.5 -37t-58.5 -104h330q-12 63 -57 102t-108 39z" />
<glyph unicode="&#x178;" horiz-adv-x="559" d="M550 707l-227 -443v-254q0 -10 -11 -10h-65q-10 0 -10 10v254l-228 443q-5 10 6 10h81q9 0 13 -8l171 -340l171 340q4 8 12 8h81q11 0 6 -10zM143 827v82q0 11 11 11h82q10 0 10 -11v-82q0 -10 -10 -10h-82q-11 0 -11 10zM313 827v82q0 11 11 11h82q10 0 10 -11v-82 q0 -10 -10 -10h-82q-11 0 -11 10z" />
<glyph unicode="&#x17f;" horiz-adv-x="385" d="M212 550v-540q0 -10 -10 -10h-60q-10 0 -10 10v428h-84q-10 0 -10 11v55q0 10 10 10h84v43q0 79 43.5 124.5t120.5 45.5q63 0 106 -19q9 -4 9 -18v-53q0 -15 -15 -8q-49 22 -100 22q-84 0 -84 -101z" />
<glyph unicode="&#x2c6;" horiz-adv-x="419" d="M254 709l107 -131q3 -4 1.5 -7.5t-6.5 -3.5h-63q-9 0 -19 10l-64 64l-65 -64q-10 -10 -18 -10h-64q-5 0 -6.5 3.5t1.5 7.5l108 131q7 8 15 8h58q8 0 15 -8z" />
<glyph unicode="&#x2dc;" horiz-adv-x="449" d="M56 680q49 37 101 37q40 0 75.5 -21t60.5 -21q22 0 62 25q4 2 7 2q7 0 11 -8l28 -43q5 -8 -8 -17q-49 -37 -100 -37q-41 0 -76 21t-60 21q-22 0 -63 -26q-4 -2 -7 -2q-4 0 -10 9l-29 43q-5 8 8 17z" />
<glyph unicode="&#x2000;" horiz-adv-x="470" />
<glyph unicode="&#x2001;" horiz-adv-x="940" />
<glyph unicode="&#x2002;" horiz-adv-x="470" />
<glyph unicode="&#x2003;" horiz-adv-x="940" />
<glyph unicode="&#x2004;" horiz-adv-x="313" />
<glyph unicode="&#x2005;" horiz-adv-x="235" />
<glyph unicode="&#x2006;" horiz-adv-x="156" />
<glyph unicode="&#x2007;" horiz-adv-x="156" />
<glyph unicode="&#x2008;" horiz-adv-x="117" />
<glyph unicode="&#x2009;" horiz-adv-x="188" />
<glyph unicode="&#x200a;" horiz-adv-x="52" />
<glyph unicode="&#x2010;" horiz-adv-x="526" d="M77 390h373q10 0 10 -10v-59q0 -11 -10 -11h-373q-10 0 -10 11v59q0 10 10 10z" />
<glyph unicode="&#x2011;" horiz-adv-x="526" d="M77 390h373q10 0 10 -10v-59q0 -11 -10 -11h-373q-10 0 -10 11v59q0 10 10 10z" />
<glyph unicode="&#x2012;" horiz-adv-x="526" d="M77 390h373q10 0 10 -10v-59q0 -11 -10 -11h-373q-10 0 -10 11v59q0 10 10 10z" />
<glyph unicode="&#x2013;" horiz-adv-x="585" d="M77 390h432q10 0 10 -10v-59q0 -11 -10 -11h-432q-10 0 -10 11v59q0 10 10 10z" />
<glyph unicode="&#x2014;" horiz-adv-x="813" d="M77 390h659q10 0 10 -10v-59q0 -11 -10 -11h-659q-10 0 -10 11v59q0 10 10 10z" />
<glyph unicode="&#x2018;" horiz-adv-x="263" d="M179 680q-31 0 -41.5 -11t-10.5 -44v-22h45q10 0 10 -10v-78q0 -10 -10 -10h-84q-10 0 -10 10v116q0 42 24 64t62 22h15q10 0 10 -10v-17q0 -10 -10 -10z" />
<glyph unicode="&#x2019;" horiz-adv-x="263" d="M84 542q31 0 41.5 11t10.5 44v21h-45q-10 0 -10 11v78q0 10 10 10h84q10 0 10 -10v-116q0 -42 -24 -64t-62 -22h-15q-10 0 -10 10v16q0 11 10 11z" />
<glyph unicode="&#x201a;" horiz-adv-x="263" d="M84 -77q31 0 41.5 11t10.5 44v22h-45q-10 0 -10 10v78q0 10 10 10h84q10 0 10 -10v-116q0 -42 -24 -64t-62 -22h-15q-10 0 -10 11v16q0 10 10 10z" />
<glyph unicode="&#x201c;" horiz-adv-x="416" d="M333 680q-31 0 -41.5 -11t-10.5 -44v-22h45q10 0 10 -10v-78q0 -10 -10 -10h-84q-11 0 -11 10v116q0 42 24 64t62 22h16q10 0 10 -10v-17q0 -10 -10 -10zM179 680q-31 0 -41.5 -11t-10.5 -44v-22h45q10 0 10 -10v-78q0 -10 -10 -10h-84q-10 0 -10 10v116q0 42 24 64 t62 22h15q10 0 10 -10v-17q0 -10 -10 -10z" />
<glyph unicode="&#x201d;" horiz-adv-x="416" d="M84 542q31 0 41.5 11t10.5 44v21h-45q-10 0 -10 11v78q0 10 10 10h84q10 0 10 -10v-116q0 -42 -24 -64t-62 -22h-15q-10 0 -10 10v16q0 11 10 11zM238 542q31 0 41.5 11t10.5 44v21h-45q-11 0 -11 11v78q0 10 11 10h84q10 0 10 -10v-116q0 -42 -24 -64t-62 -22h-15 q-11 0 -11 10v16q0 11 11 11z" />
<glyph unicode="&#x201e;" horiz-adv-x="416" d="M84 -77q31 0 41.5 11t10.5 44v22h-45q-10 0 -10 10v78q0 10 10 10h84q10 0 10 -10v-116q0 -42 -24 -64t-62 -22h-15q-10 0 -10 11v16q0 10 10 10zM238 -77q31 0 41.5 11t10.5 44v22h-45q-11 0 -11 10v78q0 10 11 10h84q10 0 10 -10v-116q0 -42 -24 -64t-62 -22h-15 q-11 0 -11 11v16q0 10 11 10z" />
<glyph unicode="&#x2022;" horiz-adv-x="393" d="M100 334q0 40 28.5 68t68.5 28t68 -28t28 -68t-28 -68t-68 -28t-68.5 28t-28.5 68z" />
<glyph unicode="&#x2026;" horiz-adv-x="765" d="M109 98h77q11 0 11 -10v-78q0 -10 -11 -10h-77q-11 0 -11 10v78q0 10 11 10zM343 98h78q10 0 10 -10v-78q0 -10 -10 -10h-78q-10 0 -10 10v78q0 10 10 10zM578 98h77q11 0 11 -10v-78q0 -10 -11 -10h-77q-11 0 -11 10v78q0 10 11 10z" />
<glyph unicode="&#x202f;" horiz-adv-x="188" />
<glyph unicode="&#x2030;" horiz-adv-x="1316" d="M848 183q0 -86 -52.5 -134.5t-123.5 -48.5t-123.5 48.5t-52.5 134.5t52.5 135t123.5 49t123.5 -49t52.5 -135zM783 183q0 60 -32.5 90.5t-78.5 30.5t-79 -30.5t-33 -90.5t33 -90.5t79 -30.5t78.5 30.5t32.5 90.5zM412 534q0 -86 -52.5 -135t-123.5 -49t-124 49t-53 135 t53 134.5t124 48.5t123.5 -48.5t52.5 -134.5zM347 534q0 60 -32.5 90t-78.5 30t-79 -30.5t-33 -89.5q0 -60 33 -90.5t79 -30.5t78.5 30.5t32.5 90.5zM1257 183q0 -86 -52.5 -134.5t-123.5 -48.5t-123.5 48.5t-52.5 134.5t52.5 135t123.5 49t123.5 -49t52.5 -135zM1193 183 q0 60 -33 90.5t-79 30.5t-78.5 -30.5t-32.5 -90.5t32.5 -90.5t78.5 -30.5t79 30.5t33 90.5zM148 41l567 673q6 8 14 0l28 -24q7 -7 2 -14l-566 -673q-7 -8 -15 0l-27 24q-8 8 -3 14z" />
<glyph unicode="&#x2039;" horiz-adv-x="345" d="M289 525v-86q0 -10 -7 -16l-154 -142l154 -143q7 -6 7 -16v-86q0 -7 -6 -7q-4 0 -7 3l-218 201q-10 9 -10 19v57q0 10 10 19l218 201q3 3 7 3q6 0 6 -7z" />
<glyph unicode="&#x203a;" horiz-adv-x="345" d="M56 439v86q0 7 6 7q4 0 7 -3l218 -201q10 -9 10 -19v-57q0 -10 -10 -19l-218 -201q-3 -3 -7 -3q-6 0 -6 7v86q0 10 7 16l154 143l-154 142q-7 6 -7 16z" />
<glyph unicode="&#x2044;" horiz-adv-x="706" d="M52 41l566 673q7 8 15 0l27 -24q8 -8 3 -14l-567 -673q-6 -8 -14 0l-28 24q-7 7 -2 14z" />
<glyph unicode="&#x205f;" horiz-adv-x="235" />
<glyph unicode="&#x2070;" horiz-adv-x="394" d="M45 525q0 94 42.5 146t109.5 52t109.5 -52t42.5 -146t-42.5 -145.5t-109.5 -51.5t-109.5 51.5t-42.5 145.5zM106 525q0 -71 25 -106.5t66 -35.5t66 35.5t25 106.5q0 72 -25 107.5t-66 35.5t-66 -35.5t-25 -107.5z" />
<glyph unicode="&#x2074;" horiz-adv-x="368" d="M214 344v63h-172q-10 0 -10 10v28q0 7 4 13l180 252q5 7 11 7h34q10 0 10 -10v-245h50q10 0 10 -10v-35q0 -10 -10 -10h-50v-63q0 -10 -10 -10h-37q-10 0 -10 10zM214 618l-112 -156h112v156z" />
<glyph unicode="&#x2075;" horiz-adv-x="350" d="M56 517l25 192q1 8 10 8h197q10 0 10 -10v-35q0 -10 -10 -10h-158l-15 -98q37 24 84 24q52 0 85.5 -34t33.5 -96q0 -60 -37 -95t-95 -35q-56 0 -93 31t-37 80q0 11 11 11h37q9 0 11 -11q11 -56 72 -56q33 0 52.5 19t19.5 55q0 75 -72 75q-42 0 -71 -29q-4 -4 -13 -3 l-42 9q-5 1 -5 8z" />
<glyph unicode="&#x2076;" horiz-adv-x="378" d="M52 508q0 104 38.5 159.5t102.5 55.5q45 0 78 -25.5t42 -70.5q0 -5 -6 -5h-46q-3 0 -5 5q-16 41 -65 41q-69 0 -75 -118q28 31 80 31q57 0 92 -34t35 -92t-38.5 -92.5t-94.5 -34.5q-59 0 -98.5 44.5t-39.5 135.5zM119 455q0 -32 19.5 -52t52.5 -20t53 20t20 52t-20 51 t-53 19t-52.5 -19t-19.5 -51z" />
<glyph unicode="&#x2077;" horiz-adv-x="294" d="M17 672v35q0 10 11 10h231q10 0 10 -10v-17q0 -7 -4 -16l-108 -331q-3 -9 -13 -9h-41q-8 0 -8 6q0 3 2 7l106 315h-175q-11 0 -11 10z" />
<glyph unicode="&#x2078;" horiz-adv-x="358" d="M61 622q0 47 33.5 74t84.5 27t84.5 -27t33.5 -74q0 -57 -45 -85q57 -27 57 -95q0 -51 -36 -82.5t-94 -31.5t-94 31.5t-36 82.5q0 68 57 95q-45 28 -45 85zM109 442q0 -29 19 -44t51 -15t51.5 15t19.5 44q0 28 -19.5 45t-51.5 17t-51 -17t-19 -45zM116 616q0 -27 17 -42 t46 -15t46.5 15t17.5 42q0 26 -19 41t-45 15t-44.5 -15t-18.5 -41z" />
<glyph unicode="&#x2079;" horiz-adv-x="378" d="M327 543q0 -104 -38.5 -159.5t-102.5 -55.5q-45 0 -78 25.5t-42 70.5q0 5 6 5h46q3 0 5 -5q16 -41 64 -41q70 0 76 118q-28 -31 -80 -31q-57 0 -92 34t-35 92t38.5 92.5t93.5 34.5q60 0 99.5 -44.5t39.5 -135.5zM260 596q0 32 -20 52t-53 20t-52.5 -20t-19.5 -52 t19.5 -51.5t52.5 -19.5t53 19.5t20 51.5z" />
<glyph unicode="&#x2080;" horiz-adv-x="394" d="M45 -11q0 94 42.5 145.5t109.5 51.5t109.5 -51.5t42.5 -145.5t-42.5 -146t-109.5 -52t-109.5 52t-42.5 146zM106 -11q0 -72 25 -107.5t66 -35.5t66 35.5t25 107.5q0 71 -25 106.5t-66 35.5t-66 -35.5t-25 -106.5z" />
<glyph unicode="&#x2081;" horiz-adv-x="227" d="M110 -193v301l-68 -37q-4 -3 -9 -3q-8 0 -8 8v43q0 7 7 10l86 47q8 4 15 4h24q10 0 10 -10v-363q0 -10 -10 -10h-37q-10 0 -10 10z" />
<glyph unicode="&#x2082;" horiz-adv-x="362" d="M50 -193v31q0 10 6 15l159 137q39 33 39 76q0 29 -19.5 47t-51.5 18q-30 0 -47.5 -18.5t-21.5 -47.5q-2 -11 -11 -11h-40q-10 0 -10 11q1 51 37 86t93 35q60 0 95 -35t35 -84q0 -67 -59 -118l-115 -96h172q11 0 11 -11v-35q0 -10 -11 -10h-251q-10 0 -10 10z" />
<glyph unicode="&#x2083;" horiz-adv-x="364" d="M140 -20v34q0 11 11 11h20q67 0 67 56q0 22 -18 37.5t-45 15.5q-54 0 -62 -52q-1 -8 -11 -8h-36q-11 0 -11 9q2 44 35.5 73t84.5 29q55 0 87.5 -27.5t32.5 -73.5q0 -55 -46 -82q62 -29 62 -94q0 -52 -39 -85t-97 -33q-57 0 -95 33t-38 83q0 10 10 10h40q9 0 10 -10 q12 -61 73 -61q33 0 55 17t22 46q0 30 -19.5 45.5t-53.5 15.5h-28q-11 0 -11 11z" />
<glyph unicode="&#x2084;" horiz-adv-x="368" d="M214 -193v63h-172q-10 0 -10 10v29q0 6 4 12l180 252q5 7 11 7h34q10 0 10 -10v-245h50q10 0 10 -10v-35q0 -10 -10 -10h-50v-63q0 -10 -10 -10h-37q-10 0 -10 10zM214 82l-112 -157h112v157z" />
<glyph unicode="&#x2085;" horiz-adv-x="350" d="M56 -19l25 191q1 8 10 8h197q10 0 10 -10v-35q0 -10 -10 -10h-158l-15 -97q35 23 84 23q52 0 85.5 -34t33.5 -96q0 -60 -37 -95t-95 -35q-55 0 -92.5 31.5t-37.5 80.5q0 10 11 10h37q10 0 11 -10q11 -57 72 -57q33 0 52.5 19t19.5 55q0 76 -72 76q-41 0 -71 -30 q-4 -4 -13 -3l-42 9q-5 1 -5 9z" />
<glyph unicode="&#x2086;" horiz-adv-x="379" d="M52 -29q0 104 38.5 159.5t102.5 55.5q45 0 78 -25.5t42 -70.5q0 -5 -6 -5h-46q-3 0 -5 5q-16 41 -65 41q-69 0 -75 -118q28 31 80 31q57 0 92 -34t35 -92t-38.5 -92.5t-94.5 -34.5q-59 0 -98.5 44.5t-39.5 135.5zM119 -82q0 -32 19.5 -52t52.5 -20t53 20t20 52t-20 51.5 t-53 19.5t-52.5 -19.5t-19.5 -51.5z" />
<glyph unicode="&#x2087;" horiz-adv-x="294" d="M17 135v35q0 10 11 10h231q10 0 10 -10v-16q0 -8 -4 -17l-108 -331q-3 -9 -13 -9h-41q-8 0 -8 6q0 4 2 8l106 314h-175q-11 0 -11 10z" />
<glyph unicode="&#x2088;" horiz-adv-x="358" d="M61 85q0 47 33.5 74t84.5 27t84.5 -27t33.5 -74q0 -57 -45 -85q57 -27 57 -94q0 -52 -36 -83.5t-94 -31.5t-94 31.5t-36 83.5q0 67 57 94q-45 28 -45 85zM109 -94q0 -29 19 -44.5t51 -15.5t51.5 15.5t19.5 44.5q0 28 -19.5 44.5t-51.5 16.5t-51 -16.5t-19 -44.5zM116 80 q0 -27 17 -42t46 -15t46.5 15t17.5 42q0 26 -18.5 40.5t-45.5 14.5t-45 -14.5t-18 -40.5z" />
<glyph unicode="&#x2089;" horiz-adv-x="378" d="M327 6q0 -104 -38.5 -159.5t-102.5 -55.5q-45 0 -78 25.5t-42 70.5q0 5 6 5h46q3 0 5 -5q16 -41 64 -41q70 0 76 118q-28 -31 -80 -31q-57 0 -92 34t-35 92t38.5 92.5t93.5 34.5q60 0 99.5 -44.5t39.5 -135.5zM260 59q0 32 -20 52t-53 20t-52.5 -20t-19.5 -52t19.5 -51 t52.5 -19t53 19t20 51z" />
<glyph unicode="&#x20ac;" horiz-adv-x="699" d="M30 493h84q29 112 101.5 173t169.5 61q110 0 179.5 -60.5t89.5 -169.5q0 -11 -10 -11h-62q-8 0 -11 11q-19 81 -65.5 115.5t-120.5 34.5q-64 0 -113 -37.5t-72 -116.5h218q10 0 10 -11v-59q0 -10 -10 -10h-232q-2 -17 -2 -55t2 -54h232q10 0 10 -10v-60q0 -10 -10 -10 h-218q23 -79 72 -116.5t113 -37.5q74 0 120.5 34.5t65.5 115.5q3 10 11 10h62q10 0 10 -10q-20 -109 -89.5 -169.5t-179.5 -60.5q-97 0 -169.5 61t-101.5 173h-84q-11 0 -11 10v60q0 10 11 10h70q-2 34 -2 54q0 21 2 55h-70q-11 0 -11 10v59q0 11 11 11z" />
<glyph unicode="&#x2122;" horiz-adv-x="730" d="M20 672v35q0 10 11 10h252q10 0 10 -10v-35q0 -10 -10 -10h-98v-318q0 -10 -10 -10h-37q-10 0 -10 10v318h-97q-11 0 -11 10zM680 707v-363q0 -10 -10 -10h-37q-10 0 -10 10v293l-93 -235q-3 -6 -8 -6h-30q-6 0 -9 6l-92 235v-293q0 -10 -10 -10h-37q-10 0 -10 10v363 q0 10 10 10h58q10 0 13 -8l92 -235l92 235q3 8 12 8h59q10 0 10 -10z" />
<glyph unicode="&#x2153;" horiz-adv-x="884" d="M124 41l566 673q7 8 15 0l27 -24q7 -7 2 -14l-566 -673q-6 -8 -14 0l-28 24q-7 7 -2 14zM637 183v35q0 10 10 10h21q66 0 66 57q0 22 -17.5 37.5t-44.5 15.5q-55 0 -63 -52q-1 -8 -10 -8h-37q-10 0 -10 9q2 44 35.5 73t84.5 29q55 0 87.5 -27.5t32.5 -73.5q0 -55 -47 -82 q63 -30 63 -94q0 -52 -39 -85t-97 -33q-57 0 -95 33t-38 83q0 10 10 10h40q9 0 10 -10q12 -61 73 -61q33 0 55 17t22 46q0 30 -19.5 45.5t-53.5 15.5h-29q-10 0 -10 10zM159 344v300l-68 -37q-5 -3 -9 -3q-8 0 -8 8v43q0 7 7 11l86 47q8 4 15 4h24q10 0 10 -10v-363 q0 -10 -10 -10h-37q-10 0 -10 10z" />
<glyph unicode="&#x2154;" horiz-adv-x="979" d="M732 183v35q0 10 10 10h21q66 0 66 57q0 22 -17.5 37.5t-44.5 15.5q-54 0 -62 -52q-1 -8 -11 -8h-37q-10 0 -10 9q2 44 35.5 73t84.5 29q55 0 87.5 -27.5t32.5 -73.5q0 -55 -46 -82q62 -29 62 -94q0 -52 -39 -85t-97 -33q-57 0 -95 33t-38 83q0 10 10 10h40q9 0 10 -10 q12 -61 73 -61q33 0 55 17t22 46q0 30 -19.5 45.5t-53.5 15.5h-29q-10 0 -10 10zM219 41l566 673q7 8 15 0l27 -24q7 -7 2 -14l-566 -673q-6 -8 -14 0l-28 24q-7 7 -2 14zM90 344v31q0 9 6 14l159 137q39 33 39 76q0 29 -19.5 47.5t-51.5 18.5q-30 0 -47.5 -19t-21.5 -48 q-1 -10 -11 -10h-40q-10 0 -10 10q1 52 37 87t93 35q60 0 95 -35.5t35 -84.5q0 -67 -59 -118l-115 -96h172q10 0 10 -10v-35q0 -10 -10 -10h-251q-10 0 -10 10z" />
<glyph unicode="&#x215b;" horiz-adv-x="886" d="M124 41l566 673q7 8 15 0l27 -24q7 -7 2 -14l-566 -673q-6 -8 -14 0l-28 24q-7 7 -2 14zM159 344v300l-68 -37q-5 -3 -9 -3q-8 0 -8 8v43q0 7 7 11l86 47q8 4 15 4h24q10 0 10 -10v-363q0 -10 -10 -10h-37q-10 0 -10 10zM555 288q0 47 33.5 74t84.5 27t84.5 -27t33.5 -74 q0 -56 -46 -85q58 -27 58 -94q0 -52 -36 -83.5t-94 -31.5t-94 31.5t-36 83.5q0 67 57 94q-45 28 -45 85zM602 109q0 -29 19.5 -44.5t51.5 -15.5t51 15.5t19 44.5q0 28 -19 44.5t-51 16.5t-51.5 -16.5t-19.5 -44.5zM609 283q0 -27 17.5 -42.5t46.5 -15.5t46 15.5t17 42.5 q0 26 -18 40.5t-45 14.5t-45.5 -14.5t-18.5 -40.5z" />
<glyph unicode="&#x215c;" horiz-adv-x="913" d="M582 288q0 47 33 74t84 27t84.5 -27t33.5 -74q0 -57 -45 -85q57 -27 57 -94q0 -52 -36 -83.5t-94 -31.5t-94 31.5t-36 83.5q0 67 58 94q-45 28 -45 85zM629 109q0 -29 19 -44.5t51 -15.5t51.5 15.5t19.5 44.5q0 28 -19.5 44.5t-51.5 16.5t-51 -16.5t-19 -44.5zM636 283 q0 -27 17 -42.5t46 -15.5t46.5 15.5t17.5 42.5q0 26 -18.5 40.5t-45.5 14.5t-45 -14.5t-18 -40.5zM150 517v35q0 10 10 10h20q67 0 67 56q0 22 -18 38t-45 16q-54 0 -62 -52q-2 -9 -10 -9h-37q-10 0 -10 10q2 45 35 73.5t84 28.5q55 0 87.5 -27.5t32.5 -73.5q0 -55 -46 -82 q63 -30 63 -95q0 -52 -39.5 -84.5t-97.5 -32.5q-57 0 -95 32.5t-38 82.5q0 11 10 11h40q9 0 11 -11q12 -60 72 -60q33 0 55 16.5t22 45.5q0 30 -19.5 46t-53.5 16h-28q-10 0 -10 10zM151 41l566 673q6 8 14 0l28 -24q7 -7 2 -14l-566 -673q-7 -8 -15 0l-27 24q-7 7 -2 14z " />
<glyph unicode="&#x215d;" horiz-adv-x="908" d="M145 41l567 673q6 8 14 0l28 -24q7 -7 2 -14l-567 -673q-6 -8 -14 0l-28 24q-7 7 -2 14zM577 288q0 47 33 74t84 27t84.5 -27t33.5 -74q0 -57 -45 -85q57 -27 57 -94q0 -52 -36 -83.5t-94 -31.5t-94 31.5t-36 83.5q0 67 58 94q-45 28 -45 85zM624 109q0 -29 19 -44.5 t51 -15.5t51.5 15.5t19.5 44.5q0 28 -19.5 44.5t-51.5 16.5t-51 -16.5t-19 -44.5zM631 283q0 -27 17 -42.5t46 -15.5t46.5 15.5t17.5 42.5q0 26 -18.5 40.5t-45.5 14.5t-45 -14.5t-18 -40.5zM67 517l24 192q1 8 10 8h197q10 0 10 -10v-35q0 -10 -10 -10h-158l-15 -98 q37 24 84 24q52 0 86 -34.5t34 -95.5q0 -60 -37 -95t-95 -35q-56 0 -93 31t-37 80q0 11 10 11h38q8 0 10 -11q11 -56 73 -56q32 0 51.5 19t19.5 55q0 75 -71 75q-43 0 -72 -29q-4 -4 -12 -3l-42 9q-5 1 -5 8z" />
<glyph unicode="&#x215e;" horiz-adv-x="880" d="M118 41l566 673q6 8 14 0l28 -24q7 -7 2 -14l-566 -673q-7 -8 -15 0l-27 24q-7 7 -2 14zM549 288q0 47 33.5 74t84.5 27t84 -27t33 -74q0 -57 -45 -85q58 -27 58 -94q0 -52 -36 -83.5t-94 -31.5t-94 31.5t-36 83.5q0 67 57 94q-45 28 -45 85zM596 109q0 -29 19.5 -44.5 t51.5 -15.5t51 15.5t19 44.5q0 28 -19 44.5t-51 16.5t-51.5 -16.5t-19.5 -44.5zM603 283q0 -27 17.5 -42.5t46.5 -15.5t46 15.5t17 42.5q0 26 -18 40.5t-45 14.5t-45.5 -14.5t-18.5 -40.5zM98 672v35q0 10 11 10h231q10 0 10 -10v-17q0 -7 -4 -16l-108 -331q-3 -9 -13 -9 h-41q-8 0 -8 6q0 3 2 7l106 315h-175q-11 0 -11 10z" />
<glyph unicode="&#x25fc;" horiz-adv-x="512" d="M0 512h512v-512h-512v512z" />
<glyph unicode="&#xfb01;" horiz-adv-x="602" d="M356 438h-157v-428q0 -10 -11 -10h-59q-10 0 -10 10v428h-84q-10 0 -10 11v55q0 10 10 10h84v66q0 64 40.5 105.5t105.5 41.5q56 0 99 -19q8 -4 8 -18v-54q0 -9 -6 -9q-5 0 -9 2q-45 22 -90 22q-32 0 -50 -21t-18 -58v-58h157q11 0 11 -10v-55q0 -11 -11 -11zM453 10v494 q0 10 10 10h59q10 0 10 -10v-494q0 -10 -10 -10h-59q-10 0 -10 10zM438 618v89q0 10 11 10h88q10 0 10 -10v-89q0 -10 -10 -10h-88q-11 0 -11 10z" />
<glyph unicode="&#xfb02;" horiz-adv-x="626" d="M356 438h-157v-428q0 -10 -11 -10h-59q-10 0 -10 10v428h-84q-10 0 -10 11v55q0 10 10 10h84v66q0 64 40.5 105.5t105.5 41.5q56 0 99 -19q8 -4 8 -18v-54q0 -9 -6 -9q-5 0 -9 2q-45 22 -90 22q-32 0 -50 -21t-18 -58v-58h157q11 0 11 -10v-55q0 -11 -11 -11zM465 10v697 q0 10 10 10h60q10 0 10 -10v-697q0 -10 -10 -10h-60q-10 0 -10 10z" />
<glyph horiz-adv-x="545" d="M138 199l-1 17h-72q-11 0 -11 10v54q0 10 11 10h47q-14 32 -14 60q0 81 52 127.5t132 46.5q83 0 134.5 -42.5t56.5 -116.5q0 -11 -10 -11h-60q-8 0 -10 11q-7 38 -35.5 61t-75.5 23t-74.5 -28t-27.5 -71q0 -34 14 -60h183q10 0 10 -10v-54q0 -10 -10 -10h-158q1 -5 1 -17 q0 -41 -15.5 -68.5t-46.5 -54.5h310q10 0 10 -10v-56q0 -10 -10 -10h-389q-10 0 -10 10v48q0 13 8 21q35 34 48 59.5t13 60.5z" />
<glyph horiz-adv-x="512" d="M464 151q0 -67 -45.5 -109t-121.5 -50v-84q0 -10 -10 -10h-60q-10 0 -10 10v85q-76 10 -125.5 55.5t-49.5 108.5q0 10 10 10h66q9 0 10 -10q9 -72 89 -88v162q-86 15 -124 48.5t-38 98.5q0 61 45 99t117 45v82q0 10 10 10h60q10 0 10 -10v-84q64 -10 103 -47.5t47 -95.5 q0 -10 -10 -10h-57q-7 0 -10 10q-16 50 -73 65v-151q79 -16 123 -46.5t44 -93.5zM380 140q0 30 -20 47t-63 28v-147q83 10 83 72zM135 380q0 -29 19 -45.5t63 -27.5v139q-82 -10 -82 -66z" />
<glyph horiz-adv-x="487" d="M71 312h86l-118 192q-3 10 6 10h79q8 0 11 -8l109 -182l108 182q3 8 12 8h78q10 0 7 -10l-119 -192h87q10 0 10 -10v-55q0 -10 -10 -10h-133v-73h112q11 0 11 -10v-56q0 -10 -11 -10h-112v-78q0 -10 -11 -10h-59q-10 0 -10 10v78h-113q-10 0 -10 10v56q0 10 10 10h113v73 h-133q-11 0 -11 10v55q0 10 11 10z" />
<glyph horiz-adv-x="580" d="M257 -91v84q-94 16 -150 88.5t-56 175.5t55.5 175t150.5 88v85q0 10 10 10h66q10 0 10 -10v-83q75 -10 124 -54.5t67 -114.5q1 -4 1 -10t-8 -6h-62q-11 0 -14 9q-26 80 -108 98v-374q82 18 108 98q3 9 14 9h62q8 0 8 -6t-1 -10q-18 -71 -67 -115.5t-124 -53.5v-83 q0 -10 -10 -10h-66q-10 0 -10 10zM135 257q0 -75 32.5 -123.5t89.5 -62.5v371q-57 -14 -89.5 -62t-32.5 -123z" />
<glyph horiz-adv-x="518" d="M440 383l-125 -125l125 -125q7 -7 0 -14l-42 -42q-7 -7 -14 0l-125 125l-125 -125q-7 -7 -14 0l-42 42q-7 7 0 14l125 125l-125 125q-7 7 0 14l42 42q7 7 14 0l125 -125l125 125q7 7 14 0l42 -42q7 -7 0 -14z" />
<glyph horiz-adv-x="585" d="M333 474v-176h176q10 0 10 -10v-60q0 -10 -10 -10h-176v-176q0 -10 -10 -10h-60q-10 0 -10 10v176h-176q-10 0 -10 10v60q0 10 10 10h176v176q0 10 10 10h60q10 0 10 -10z" />
<glyph horiz-adv-x="585" d="M77 256h432q10 0 10 -10v-60q0 -10 -10 -10h-432q-10 0 -10 10v60q0 10 10 10zM254 98h78q10 0 10 -10v-78q0 -10 -10 -10h-78q-10 0 -10 10v78q0 10 10 10zM254 432h78q10 0 10 -10v-78q0 -10 -10 -10h-78q-10 0 -10 10v78q0 10 10 10z" />
<glyph horiz-adv-x="609" d="M49 226h64q-1 9 -1 31q0 21 1 31h-64q-10 0 -10 10v55q0 11 10 11h78q26 78 83 119t135 41q91 0 147 -46.5t71 -127.5q0 -10 -10 -10h-58q-8 0 -11 10q-13 44 -48.5 71.5t-90.5 27.5q-100 0 -136 -85h126q10 0 10 -11v-55q0 -10 -10 -10h-142q-2 -20 -2 -31q0 -13 2 -31 h142q10 0 10 -10v-55q0 -10 -10 -10h-126q36 -85 136 -85q55 0 90.5 27t48.5 71q3 10 11 10h58q10 0 10 -10q-15 -81 -71 -127.5t-147 -46.5q-77 0 -134.5 41.5t-83.5 119.5h-78q-10 0 -10 10v55q0 10 10 10z" />
<glyph horiz-adv-x="585" d="M77 392h432q10 0 10 -10v-59q0 -11 -10 -11h-432q-10 0 -10 11v59q0 10 10 10zM77 184h432q10 0 10 -10v-59q0 -11 -10 -11h-432q-10 0 -10 11v59q0 10 10 10z" />
<glyph horiz-adv-x="636" d="M49 257q0 119 78 193t191 74t191.5 -74t78.5 -193t-78.5 -193t-191.5 -74t-191 74t-78 193zM133 257q0 -84 51.5 -137.5t133.5 -53.5t134 53.5t52 137.5t-52 138t-134 54t-133.5 -54t-51.5 -138z" />
<glyph horiz-adv-x="359" d="M198 10v394l-108 -58q-6 -3 -11 -3q-7 0 -7 9v67q0 9 11 15l134 75q8 5 15 5h35q11 0 11 -10v-494q0 -10 -11 -10h-59q-10 0 -10 10z" />
<glyph horiz-adv-x="507" d="M54 10v43q0 14 12 24l210 171q34 28 49 51t15 59q0 39 -26.5 65t-70.5 26q-45 0 -72.5 -27t-30.5 -67q-1 -15 -13 -15h-54q-13 0 -13 15q3 78 56 123.5t127 45.5q78 0 127.5 -45.5t49.5 -108.5q0 -55 -18 -91.5t-57 -67.5l-168 -135h251q10 0 10 -10v-56q0 -10 -10 -10 h-363q-11 0 -11 10z" />
<glyph horiz-adv-x="544" d="M213 185v56q0 10 10 10h42q55 0 86.5 25.5t31.5 78.5q0 43 -31.5 68.5t-81.5 25.5q-48 0 -80.5 -27t-36.5 -75q-1 -11 -13 -11h-53q-12 0 -12 15q3 79 59 126t136 47q87 0 140 -45.5t53 -113.5q0 -102 -86 -146q51 -26 79.5 -64t28.5 -104q0 -86 -58 -139t-152 -53 q-87 0 -151 52.5t-68 139.5q0 16 13 16h54q12 0 13 -13q6 -58 44 -89t95 -31q60 0 95.5 30.5t35.5 88.5q0 55 -36 88.5t-90 33.5h-57q-10 3 -10 10z" />
<glyph horiz-adv-x="585" d="M356 -131v131h-277q-10 0 -10 10v30q0 12 8 23l294 443q5 8 13 8h42q10 0 10 -10v-428h89q11 0 11 -10v-56q0 -10 -11 -10h-89v-131q0 -10 -11 -10h-58q-11 0 -11 10zM356 350l-185 -274h185v274z" />
<glyph horiz-adv-x="576" d="M80 161l38 343q1 10 10 10h340q10 0 10 -10v-55q0 -11 -10 -11h-281l-23 -191q24 23 63 37t77 14q96 0 153 -59.5t57 -157.5q0 -100 -61.5 -161t-157.5 -61q-85 0 -151 51t-70 139q0 16 12 16h54q10 0 14 -16q27 -115 141 -115q66 0 102.5 38.5t36.5 106.5q0 69 -39 106 t-101 37q-82 0 -130 -62q-7 -9 -18 -9h-56q-10 0 -10 10z" />
<glyph horiz-adv-x="584" d="M72 289q0 177 60.5 271.5t169.5 94.5q77 0 133 -47t63 -126q0 -10 -12 -10h-54q-8 0 -11 10q-25 98 -122 98q-127 0 -141 -215q62 65 154 65q86 0 144.5 -58.5t58.5 -162.5q0 -101 -63 -160t-154 -59q-101 0 -163.5 71.5t-62.5 227.5zM161 209q0 -64 37 -103.5t98 -39.5 t98 39.5t37 103.5t-37 104.5t-98 40.5t-98 -40.5t-37 -104.5z" />
<glyph horiz-adv-x="478" d="M51 449v55q0 10 10 10h371q10 0 10 -10v-35q0 -9 -5 -22l-206 -581q-2 -7 -11 -7h-57q-10 0 -10 8q0 3 1 5l202 566h-295q-10 0 -10 11z" />
<glyph horiz-adv-x="538" d="M81 481q0 81 55.5 127.5t132.5 46.5t133 -46.5t56 -127.5q0 -84 -75 -137q93 -53 93 -162q0 -90 -58.5 -141t-148.5 -51t-148.5 51t-58.5 141q0 109 94 162q-75 53 -75 137zM146 182q0 -55 34.5 -85.5t88.5 -30.5t88.5 30.5t34.5 85.5t-34.5 86t-88.5 31t-88.5 -31 t-34.5 -86zM161 477q0 -49 31 -75.5t77 -26.5t77.5 26.5t31.5 75.5q0 50 -32.5 76.5t-76.5 26.5t-76 -26.5t-32 -76.5z" />
<glyph horiz-adv-x="584" d="M513 225q0 -177 -60.5 -271.5t-169.5 -94.5q-77 0 -133 47t-63 126q0 10 11 10h55q8 0 11 -10q25 -98 122 -98q127 0 141 216q-63 -66 -155 -66q-86 0 -144 58.5t-58 162.5q0 101 63 160t154 59q101 0 163.5 -71.5t62.5 -227.5zM424 305q0 64 -37 104t-98 40t-98 -40 t-37 -104t37 -104.5t98 -40.5t98 40.5t37 104.5z" />
<glyph horiz-adv-x="665" d="M624 348h-94v-109q0 -124 -66 -186.5t-169 -62.5q-104 0 -170 60.5t-66 152.5q0 75 31.5 119.5t86.5 73.5q-44 30 -67.5 65.5t-23.5 92.5q0 78 55 125.5t146 47.5h90q10 0 10 -10v-60q0 -10 -10 -10h-90q-56 0 -87.5 -25.5t-31.5 -77.5q0 -58 36.5 -87t101.5 -29h140v101 q0 11 11 11h63q10 0 10 -11v-101h94q11 0 11 -11v-58q0 -8 -11 -11zM446 239v109h-140q-77 0 -119 -38t-42 -105q0 -65 41.5 -100t108.5 -35q151 0 151 169z" />
<glyph horiz-adv-x="393" d="M213 274v-87q0 -64 14.5 -84.5t54.5 -20.5h48q10 0 10 -10v-62q0 -10 -10 -10h-48q-77 0 -116 38.5t-39 138.5v81q0 59 -54 59h-31q-10 0 -10 11v61q0 10 10 10h31q54 0 54 60v81q0 100 39 138.5t116 38.5h48q10 0 10 -10v-62q0 -10 -10 -10h-48q-40 0 -54.5 -21 t-14.5 -85v-87q0 -68 -62 -84q62 -16 62 -84z" />
<glyph horiz-adv-x="393" d="M180 187v87q0 67 63 84q-63 17 -63 84v87q0 64 -14 85t-54 21h-49q-10 0 -10 10v62q0 10 10 10h49q77 0 115.5 -38.5t38.5 -138.5v-81q0 -60 55 -60h30q10 0 10 -10v-61q0 -11 -10 -11h-30q-55 0 -55 -59v-81q0 -100 -38.5 -138.5t-115.5 -38.5h-49q-10 0 -10 10v62 q0 10 10 10h49q40 0 54 20.5t14 84.5z" />
<glyph horiz-adv-x="418" d="M86 10v697q0 10 10 10h259q11 0 11 -10v-62q0 -10 -11 -10h-183v-553h183q11 0 11 -10v-62q0 -10 -11 -10h-259q-10 0 -10 10z" />
<glyph horiz-adv-x="418" d="M333 707v-697q0 -10 -10 -10h-260q-10 0 -10 10v62q0 10 10 10h184v553h-184q-10 0 -10 10v62q0 10 10 10h260q10 0 10 -10z" />
<glyph horiz-adv-x="367" d="M175 347q0 -29 2 -52.5t9.5 -46t11 -36t19 -33.5t20 -27.5t27.5 -28.5t28.5 -25.5t34.5 -29.5q9 -7 1 -15l-45 -51q-7 -7 -15 -1q-90 67 -134.5 134t-44.5 162v125q0 95 44.5 162t134.5 134q8 6 15 -1l45 -51q8 -8 -1 -15q-29 -25 -34.5 -29.5t-28.5 -25.5t-27.5 -28.5 t-20 -27.5t-19 -33.5t-11 -36t-9.5 -46t-2 -52.5v-25z" />
<glyph horiz-adv-x="367" d="M193 347v25q0 29 -2 52.5t-9.5 46t-11 36t-19 33.5t-20 27.5t-27.5 28.5t-28.5 25.5t-34.5 29.5q-9 7 -1 15l45 51q7 7 14 1q90 -67 135 -134t45 -162v-125q0 -95 -45 -162t-135 -134q-7 -6 -14 1l-45 51q-8 8 1 15q29 25 34.5 29.5t28.5 25.5t27.5 28.5t20 27.5t19 33.5 t11 36t9.5 46t2 52.5z" />
<glyph horiz-adv-x="397" d="M219 267v-179q0 -54 16 -80t53 -26h46q10 0 10 -11v-61q0 -10 -10 -10h-48q-86 0 -119.5 46.5t-33.5 152.5v152q0 67 -64 67h-27q-10 0 -10 11v61q0 10 10 10h27q64 0 64 68v152q0 106 33.5 152.5t119.5 46.5h48q10 0 10 -10v-61q0 -11 -10 -11h-46q-37 0 -53 -26 t-16 -80v-179q0 -72 -64 -93q64 -21 64 -92z" />
<glyph horiz-adv-x="397" d="M178 88v179q0 71 65 92q-65 21 -65 93v179q0 54 -15.5 80t-52.5 26h-47q-10 0 -10 11v61q0 10 10 10h49q86 0 119 -46.5t33 -152.5v-152q0 -68 65 -68h26q11 0 11 -10v-61q0 -11 -11 -11h-26q-65 0 -65 -67v-152q0 -106 -33 -152.5t-119 -46.5h-49q-10 0 -10 10v61 q0 11 10 11h47q37 0 52.5 26t15.5 80z" />
<glyph horiz-adv-x="418" d="M86 -90v899q0 10 10 10h259q11 0 11 -10v-61q0 -11 -11 -11h-183v-755h183q11 0 11 -11v-61q0 -10 -11 -10h-259q-10 0 -10 10z" />
<glyph horiz-adv-x="418" d="M333 809v-899q0 -10 -10 -10h-260q-10 0 -10 10v61q0 11 10 11h184v755h-184q-10 0 -10 11v61q0 10 10 10h260q10 0 10 -10z" />
<glyph horiz-adv-x="365" d="M175 290q0 -95 12 -145.5t40.5 -88.5t97.5 -97q7 -6 1 -14l-39 -48q-5 -5 -7 -5t-8 4q-107 87 -145 163.5t-38 198.5v204q0 122 38 198.5t145 163.5q4 3 8 3q3 0 7 -4l39 -48q6 -8 -1 -14q-69 -59 -97.5 -97t-40.5 -88.5t-12 -145.5v-140z" />
<glyph horiz-adv-x="370" d="M196 290v140q0 95 -12 145.5t-40.5 88.5t-97.5 97q-7 6 -1 14l39 48q4 4 7 4t7 -3q108 -88 146 -164t38 -198v-204q0 -122 -38 -198t-146 -164q-6 -4 -7 -4q-2 0 -7 5l-39 48q-6 8 1 14q69 59 97.5 97t40.5 88.5t12 145.5z" />
<glyph horiz-adv-x="393" d="M100 358q0 40 28.5 68.5t68.5 28.5t68 -28.5t28 -68.5t-28 -68t-68 -28t-68.5 28t-28.5 68z" />
<glyph horiz-adv-x="309" d="M187 0h-65q-10 0 -10 10v499q0 10 10 10h65q11 0 11 -10v-499q0 -10 -11 -10zM196 614h-82q-11 0 -11 11v82q0 10 11 10h82q10 0 10 -10v-82q0 -11 -10 -11z" />
<glyph horiz-adv-x="583" d="M507 193q-3 -85 -63.5 -144t-160.5 -59q-98 0 -156.5 54t-58.5 141q0 41 18 74t43.5 55.5t51 44t43.5 50t18 62.5v38q0 10 10 10h65q11 0 11 -10v-31q0 -45 -18 -81.5t-43.5 -60.5t-51 -45.5t-43.5 -47.5t-18 -57q0 -53 35 -83.5t94 -30.5q56 0 94.5 31.5t45.5 89.5 q1 10 10 10h64q10 0 10 -10zM326 614h-82q-11 0 -11 11v82q0 10 11 10h82q10 0 10 -10v-82q0 -11 -10 -11z" />
<glyph horiz-adv-x="825" d="M712 374q0 123 -73.5 206.5t-211.5 83.5q-131 0 -220.5 -85.5t-89.5 -228.5q0 -150 86 -236.5t224 -86.5q101 0 194 54q9 4 12 -4l21 -43q3 -8 -4 -12q-110 -59 -223 -59q-165 0 -273 106t-108 281q0 169 112 273t269 104q107 0 189 -50t122.5 -127.5t40.5 -167.5 q0 -117 -40.5 -176t-111.5 -59q-36 0 -66.5 18.5t-39.5 45.5q-54 -64 -141 -64q-71 0 -117.5 48.5t-46.5 135.5q0 91 55.5 156.5t143.5 65.5q77 0 111 -52l4 37q2 8 9 8h45q8 0 8 -8l-24 -215q-2 -24 -2 -36q0 -43 18.5 -62.5t46.5 -19.5q81 0 81 169zM517 367 q0 129 -98 129q-64 0 -98.5 -49t-34.5 -116q0 -61 26 -93.5t75 -32.5q62 0 96 46.5t34 115.5z" />
<glyph horiz-adv-x="345" d="M289 603v-86q0 -10 -7 -16l-154 -143l154 -142q7 -6 7 -16v-86q0 -8 -6 -8q-3 0 -7 4l-218 201q-10 9 -10 19v57q0 10 10 19l218 201q3 3 7 3q6 0 6 -7z" />
<glyph horiz-adv-x="345" d="M56 517v86q0 7 6 7q4 0 7 -3l218 -201q10 -9 10 -19v-57q0 -10 -10 -19l-218 -201q-4 -4 -7 -4q-6 0 -6 8v86q0 10 7 16l154 142l-154 143q-7 6 -7 16z" />
<glyph horiz-adv-x="563" d="M507 603v-86q0 -10 -7 -16l-154 -143l154 -142q7 -6 7 -16v-86q0 -8 -6 -8q-2 0 -6 4l-219 201q-10 9 -10 19v57q0 10 10 19l219 201q3 3 6 3q6 0 6 -7zM289 603v-86q0 -10 -7 -16l-154 -143l154 -142q7 -6 7 -16v-86q0 -8 -6 -8q-3 0 -7 4l-218 201q-10 9 -10 19v57 q0 10 10 19l218 201q3 3 7 3q6 0 6 -7z" />
<glyph horiz-adv-x="563" d="M56 517v86q0 7 6 7q4 0 7 -3l218 -201q10 -9 10 -19v-57q0 -10 -10 -19l-218 -201q-4 -4 -7 -4q-6 0 -6 8v86q0 10 7 16l154 142l-154 143q-7 6 -7 16zM274 517v86q0 7 7 7q3 0 6 -3l218 -201q10 -9 10 -19v-57q0 -10 -10 -19l-218 -201q-4 -4 -6 -4q-7 0 -7 8v86 q0 9 8 16l153 142l-153 143q-8 7 -8 16z" />
<glyph d="M47 358q0 178 76.5 273.5t193.5 95.5t194 -95.5t77 -273.5t-76.5 -273t-194.5 -95q-117 0 -193.5 95t-76.5 273zM133 358q0 -151 50 -219.5t134 -68.5t134.5 68.5t50.5 219.5t-50.5 220t-134.5 69t-134 -69t-50 -220z" />
<glyph d="M538 0h-424q-11 0 -11 10v60q0 10 11 10h170v523l-150 -82q-6 -3 -11 -3q-7 0 -7 9v71q0 10 11 15l178 99q8 5 16 5h36q11 0 11 -10v-627h170q10 0 10 -10v-60q0 -10 -10 -10z" />
<glyph d="M84 10v43q0 15 11 24l290 279q39 38 52.5 72t13.5 89q0 57 -37.5 93.5t-101.5 36.5q-68 0 -106.5 -39.5t-38.5 -98.5q0 -15 -13 -15h-57q-12 0 -12 15q2 94 63 156t164 62q97 0 160 -59t63 -149q0 -128 -93 -216l-234 -223h338q10 0 10 -10v-60q0 -10 -10 -10h-452 q-10 0 -10 10z" />
<glyph d="M253 353v58q0 11 11 11h52q64 0 99.5 29.5t35.5 88.5q0 49 -39 78t-95 29t-93.5 -31.5t-41.5 -85.5q-1 -12 -13 -12h-56q-14 0 -14 18q5 85 67.5 138t150.5 53q92 0 152.5 -50.5t60.5 -126.5q0 -59 -21.5 -97.5t-66.5 -65.5q121 -49 121 -178q0 -98 -66.5 -158.5 t-173.5 -60.5q-99 0 -167 61t-75 158q0 17 13 17h56q13 0 14 -13q7 -66 49.5 -104.5t109.5 -38.5q73 0 114.5 35.5t41.5 106.5q0 62 -40 96t-114 34h-61q-11 3 -11 11z" />
<glyph d="M390 10v137h-314q-10 0 -10 11v38q0 12 8 23l327 490q5 8 14 8h49q10 0 10 -10v-480h101q11 0 11 -10v-59q0 -11 -11 -11h-101v-137q0 -10 -11 -10h-63q-10 0 -10 10zM390 552l-219 -325h219v325z" />
<glyph d="M93 334l44 373q1 10 10 10h377q11 0 11 -10v-60q0 -10 -11 -10h-314l-30 -216q78 54 165 54q105 0 166 -64.5t61 -176.5q0 -116 -68 -180t-175 -64q-102 0 -169 59t-72 151q0 15 12 15h59q11 0 13 -15q8 -56 51.5 -93t105.5 -37q74 0 116.5 43t42.5 119q0 75 -42 119 t-116 44q-85 0 -150 -62q-9 -9 -17 -9h-60q-10 0 -10 10z" />
<glyph d="M73 327q0 199 70 299.5t189 100.5q89 0 148.5 -48t72.5 -130q0 -10 -11 -10h-62q-8 0 -11 10q-14 52 -51.5 77t-85.5 25q-73 0 -120 -66.5t-49 -198.5q31 38 79 57.5t97 19.5q103 0 167.5 -63t64.5 -174q0 -108 -71 -172t-170 -64q-116 0 -186.5 79.5t-70.5 257.5z M172 226q0 -70 43 -113t115 -43t114.5 43t42.5 113t-42.5 113.5t-114.5 43.5t-115 -43.5t-43 -113.5z" />
<glyph d="M104 647v60q0 10 11 10h438q10 0 10 -10v-39q0 -12 -5 -26l-244 -635q-3 -7 -11 -7h-63q-11 0 -11 8q0 3 2 7l237 622h-353q-11 0 -11 10z" />
<glyph d="M103 538q0 87 62 138t152 51t152 -51t62 -138q0 -102 -86 -157q109 -58 109 -178q0 -93 -67 -153t-170 -60t-169.5 60t-66.5 153q0 120 108 178q-86 55 -86 157zM165 203q0 -63 41 -98t111 -35t111.5 35t41.5 98t-41.5 99t-111.5 36t-111 -36t-41 -99zM183 534 q0 -52 36.5 -85t97.5 -33t98 33t37 85q0 53 -38 84t-97 31t-96.5 -30.5t-37.5 -84.5z" />
<glyph d="M562 390q0 -199 -70 -299.5t-189 -100.5q-89 0 -148.5 48t-72.5 130q0 10 11 10h62q8 0 11 -10q14 -52 51.5 -77t85.5 -25q73 0 120 66.5t49 198.5q-31 -38 -79 -57.5t-97 -19.5q-103 0 -168 62.5t-65 173.5q0 108 71.5 172.5t170.5 64.5q116 0 186.5 -79.5t70.5 -257.5z M463 490q0 70 -43 113.5t-115 43.5t-115 -43.5t-43 -113.5t43 -113t115 -43t115 43t43 113z" />
<glyph horiz-adv-x="636" d="M48 358q0 178 76.5 273.5t193.5 95.5t194 -95.5t77 -273.5t-76.5 -273t-194.5 -95q-117 0 -193.5 95t-76.5 273zM134 358q0 -185 79 -252l140 539q-11 2 -35 2q-84 0 -134 -69t-50 -220zM503 358q0 183 -79 252l-140 -537q16 -3 34 -3q84 0 134.5 68.5t50.5 219.5z" />
<glyph horiz-adv-x="614" d="M532 504v-494q0 -10 -10 -10h-59q-10 0 -10 10v44q-59 -64 -164 -64q-104 0 -171 74t-67 193t67 193t171 74q97 0 164 -65v45q0 10 10 10h59q10 0 10 -10zM461 257q0 86 -43 139t-120 53t-120 -53t-43 -139t43 -138.5t120 -52.5t120 52.5t43 138.5z" />
<glyph horiz-adv-x="614" d="M532 504v-494q0 -10 -10 -10h-59q-10 0 -10 10v44q-59 -64 -164 -64q-104 0 -171 74t-67 193t67 193t171 74q97 0 164 -65v45q0 10 10 10h59q10 0 10 -10zM461 257q0 86 -43 139t-120 53t-120 -53t-43 -139t43 -138.5t120 -52.5t120 52.5t43 138.5zM230 578l71 129 q6 10 15 10h98q7 0 7 -5q0 -2 -2 -5l-106 -130q-8 -10 -18 -10h-59q-7 0 -7 6q0 3 1 5z" />
<glyph horiz-adv-x="614" d="M532 504v-494q0 -10 -10 -10h-59q-10 0 -10 10v44q-59 -64 -164 -64q-104 0 -171 74t-67 193t67 193t171 74q97 0 164 -65v45q0 10 10 10h59q10 0 10 -10zM461 257q0 86 -43 139t-120 53t-120 -53t-43 -139t43 -138.5t120 -52.5t120 52.5t43 138.5zM275 707l71 -129 q1 -2 1 -5q0 -6 -6 -6h-59q-11 0 -19 10l-105 130q-2 3 -2 5q0 5 7 5h97q9 0 15 -10z" />
<glyph horiz-adv-x="614" d="M532 504v-494q0 -10 -10 -10h-59q-10 0 -10 10v44q-59 -64 -164 -64q-104 0 -171 74t-67 193t67 193t171 74q97 0 164 -65v45q0 10 10 10h59q10 0 10 -10zM461 257q0 86 -43 139t-120 53t-120 -53t-43 -139t43 -138.5t120 -52.5t120 52.5t43 138.5zM339 709l107 -131 q3 -4 1.5 -7.5t-6.5 -3.5h-63q-9 0 -19 10l-64 64l-65 -64q-10 -10 -18 -10h-64q-5 0 -6.5 3.5t1.5 7.5l108 131q7 8 15 8h58q8 0 15 -8z" />
<glyph horiz-adv-x="614" d="M532 504v-494q0 -10 -10 -10h-59q-10 0 -10 10v44q-59 -64 -164 -64q-104 0 -171 74t-67 193t67 193t171 74q97 0 164 -65v45q0 10 10 10h59q10 0 10 -10zM461 257q0 86 -43 139t-120 53t-120 -53t-43 -139t43 -138.5t120 -52.5t120 52.5t43 138.5zM160 625v82 q0 10 10 10h82q10 0 10 -10v-82q0 -11 -10 -11h-82q-10 0 -10 11zM330 625v82q0 10 10 10h82q10 0 10 -10v-82q0 -11 -10 -11h-82q-10 0 -10 11z" />
<glyph horiz-adv-x="614" d="M532 504v-494q0 -10 -10 -10h-59q-10 0 -10 10v44q-59 -64 -164 -64q-104 0 -171 74t-67 193t67 193t171 74q97 0 164 -65v45q0 10 10 10h59q10 0 10 -10zM461 257q0 86 -43 139t-120 53t-120 -53t-43 -139t43 -138.5t120 -52.5t120 52.5t43 138.5zM121 680q49 37 100 37 q40 0 75.5 -21t60.5 -21q23 0 63 25q4 2 7 2q6 0 10 -8l29 -43q5 -8 -8 -17q-49 -37 -101 -37q-41 0 -76 21t-60 21q-21 0 -62 -26q-4 -2 -7 -2q-5 0 -11 9l-28 43q-5 8 8 17z" />
<glyph horiz-adv-x="614" d="M532 504v-494q0 -10 -10 -10h-59q-10 0 -10 10v44q-59 -64 -164 -64q-104 0 -171 74t-67 193t67 193t171 74q97 0 164 -65v45q0 10 10 10h59q10 0 10 -10zM461 257q0 86 -43 139t-120 53t-120 -53t-43 -139t43 -138.5t120 -52.5t120 52.5t43 138.5zM200 651q0 38 25 62 t64 24t64 -24t25 -62t-25 -62t-64 -24t-64 24t-25 62zM249 651q0 -19 11 -30t29 -11t29 11t11 30t-11 30t-29 11t-29 -11t-11 -30z" />
<glyph horiz-adv-x="620" d="M318 175q-81 0 -129 44q-56 -26 -56 -68q0 -26 19 -41t49 -15q18 0 60 10t82 10q99 0 162 -45t63 -122q0 -76 -65.5 -118.5t-170.5 -42.5t-172.5 42.5t-67.5 118.5q0 47 30 85q-69 41 -69 115q0 77 97 126q-15 37 -15 75q0 81 53.5 128t129.5 47q62 0 107 -28l69 61 q4 4 8 4q3 0 8 -5l40 -43q4 -4 4 -8t-5 -9l-67 -61q21 -40 21 -86q0 -81 -54 -127.5t-131 -46.5zM172 -52q0 -85 160 -85q156 0 156 85q0 91 -156 91q-26 0 -66.5 -9t-52.5 -10q-41 -28 -41 -72zM217 349q0 -47 29 -72.5t72 -25.5q44 0 73.5 25.5t29.5 72.5q0 48 -29.5 74 t-73.5 26q-43 0 -72 -26t-29 -74z" />
<glyph horiz-adv-x="665" d="M594 333q0 -10 -10 -10h-391l139 -140q7 -7 0 -14l-39 -39q-7 -7 -14 0l-204 204q-13 13 -13 26q0 14 13 27l204 204q7 7 14 0l39 -39q7 -7 0 -14l-139 -140h391q10 0 10 -10v-55z" />
<glyph horiz-adv-x="665" d="M72 333v55q0 10 10 10h391l-139 140q-7 7 0 14l39 39q7 7 14 0l204 -204q12 -12 12 -27q0 -14 -12 -26l-204 -204q-7 -7 -14 0l-39 39q-7 7 0 14l139 140h-391q-10 0 -10 10z" />
<glyph d="M101 106l50 50q-32 50 -32 113q0 64 32 114l-50 49q-7 7 0 14l39 39q8 7 15 0l49 -49q51 32 113 32q61 0 114 -32l49 49q8 7 15 0l39 -39q7 -7 0 -14l-50 -49q32 -52 32 -114q0 -61 -32 -113l50 -50q7 -7 0 -14l-39 -39q-7 -7 -15 0l-49 49q-47 -31 -114 -31 q-68 0 -113 31l-49 -49q-7 -7 -15 0l-39 39q-7 7 0 14zM195 269q0 -59 33.5 -94t88.5 -35q56 0 89.5 35.5t33.5 93.5t-33.5 93.5t-89.5 35.5q-55 0 -88.5 -35t-33.5 -94z" />
<glyph d="M163 285q0 22 -2 33h-83q-10 0 -10 11v59q0 10 10 10h57q-20 55 -20 110q0 98 61 158.5t156 60.5q100 0 160 -59t60 -144q0 -10 -10 -10h-66q-10 0 -10 10q-2 51 -38.5 86t-95.5 35q-61 0 -96 -36t-35 -101q0 -17 3 -33.5t5.5 -25t10 -27t9.5 -24.5h210q11 0 11 -10v-59 q0 -11 -11 -11h-192q2 -24 2 -38q0 -106 -68 -198h380q10 0 10 -10v-62q0 -10 -10 -10h-461q-10 0 -10 10v72q0 9 8 20q38 49 51.5 85t13.5 98z" />
<glyph d="M97 344h136l-186 363q-3 10 6 10h82q8 0 11 -8l171 -340l171 340q3 8 12 8h82q9 0 6 -10l-187 -363h145q10 0 10 -10v-60q0 -10 -10 -10h-186v-68h165q11 0 11 -11v-59q0 -10 -11 -10h-165v-106q0 -10 -10 -10h-65q-11 0 -11 10v106h-156q-10 0 -10 10v59q0 11 10 11h156 v68h-177q-10 0 -10 10v60q0 10 10 10z" />
<glyph d="M27 493h68q26 113 93 173.5t160 60.5q109 0 175.5 -64t79.5 -166q0 -11 -10 -11h-63q-8 0 -10 11q-14 71 -58.5 110.5t-113.5 39.5q-131 0 -169 -154h207q10 0 10 -11v-59q0 -10 -10 -10h-217q-2 -34 -2 -55q0 -22 2 -54h217q10 0 10 -10v-60q0 -10 -10 -10h-207 q37 -154 169 -154q69 0 113.5 39.5t58.5 110.5q1 10 10 10h63q10 0 10 -10q-13 -102 -79.5 -166t-175.5 -64q-93 0 -160 60.5t-93 173.5h-68q-11 0 -11 10v60q0 10 11 10h56q-2 17 -2 54q0 38 2 55h-56q-11 0 -11 10v59q0 11 11 11z" />
<glyph d="M289 10v84q-94 16 -150 88.5t-56 175.5t56 175.5t150 88.5v85q0 10 10 10h66q10 0 10 -10v-83q75 -10 123 -54.5t67 -114.5q1 -4 1 -11q0 -6 -7 -6h-62q-12 0 -15 9q-26 82 -107 99v-375q81 18 107 98q4 10 15 10h62q7 0 7 -7q0 -6 -1 -10q-19 -71 -67 -115.5t-123 -53.5 v-83q0 -10 -10 -10h-66q-10 0 -10 10zM167 358q0 -75 32.5 -123.5t89.5 -62.5v372q-57 -14 -89.5 -62.5t-32.5 -123.5z" />
<glyph d="M271 -92v85q-97 11 -158.5 72.5t-61.5 151.5q0 10 10 10h66q10 0 10 -10q2 -54 38 -93t96 -49v263q-100 29 -152 74.5t-52 123.5q0 81 57.5 130t146.5 59v84q0 10 11 10h65q10 0 10 -10v-84q90 -12 143.5 -68.5t55.5 -129.5q0 -10 -10 -10h-66q-10 0 -10 10 q-3 43 -34.5 74t-78.5 42v-241q107 -30 165 -73.5t58 -119.5q0 -98 -60 -153t-163 -64v-84q0 -10 -10 -10h-65q-11 0 -11 10zM494 204q0 40 -35.5 65t-101.5 45v-240q137 15 137 130zM153 540q0 -41 30 -67t88 -46v216q-53 -7 -85.5 -34.5t-32.5 -68.5z" />
<glyph d="M521 125v-70q0 -10 -10 -6l-370 200q-10 4 -10 13v76q0 9 10 13l370 200q10 4 10 -6v-70q0 -10 -10 -14l-304 -161l304 -161q10 -4 10 -14z" />
<glyph d="M101 452h433q10 0 10 -11v-59q0 -10 -10 -10h-433q-10 0 -10 10v59q0 11 10 11zM101 244h433q10 0 10 -11v-59q0 -10 -10 -10h-433q-10 0 -10 10v59q0 11 10 11z" />
<glyph d="M114 55v70q0 10 10 14l304 161l-304 161q-10 4 -10 14v70q0 10 10 6l370 -200q10 -4 10 -13v-76q0 -9 -10 -13l-370 -200q-10 -4 -10 6z" />
<glyph d="M357 566v-176h177q10 0 10 -10v-59q0 -11 -10 -11h-177v-176q0 -10 -10 -10h-59q-10 0 -10 10v176h-177q-10 0 -10 11v59q0 10 10 10h177v176q0 11 10 11h59q10 0 10 -11z" />
<glyph d="M101 80h433q10 0 10 -10v-60q0 -10 -10 -10h-433q-10 0 -10 10v60q0 10 10 10zM357 580v-177h177q10 0 10 -10v-59q0 -10 -10 -10h-177v-177q0 -10 -10 -10h-59q-10 0 -10 10v177h-177q-10 0 -10 10v59q0 10 10 10h177v177q0 10 10 10h59q10 0 10 -10z" />
<glyph d="M274 98h78q10 0 10 -10v-78q0 -10 -10 -10h-78q-10 0 -10 10v78q0 10 10 10zM274 514h78q10 0 10 -10v-78q0 -10 -10 -10h-78q-10 0 -10 10v78q0 10 10 10zM101 297h433q10 0 10 -10v-60q0 -10 -10 -10h-433q-10 0 -10 10v60q0 10 10 10z" />
<glyph d="M499 475l-125 -125l125 -125q7 -7 0 -14l-42 -42q-7 -7 -15 0l-125 125l-124 -125q-7 -7 -15 0l-42 42q-7 7 0 14l125 125l-125 125q-7 7 0 14l42 42q8 7 15 0l124 -124l125 124q8 7 15 0l42 -42q7 -7 0 -14z" />
<glyph d="M335 10l27 193h-134l-27 -193q-1 -10 -12 -10h-65q-9 0 -9 10l27 193h-119q-11 0 -11 10v61q0 11 11 11h131l21 147h-112q-10 0 -10 10v62q0 10 10 10h123l28 193q1 10 11 10h66q9 0 9 -10l-28 -193h135l27 193q1 10 11 10h66q9 0 9 -10l-27 -193h119q11 0 11 -10v-62 q0 -10 -11 -10h-131l-21 -147h111q11 0 11 -11v-61q0 -10 -11 -10h-122l-28 -193q-1 -10 -11 -10h-66q-9 0 -9 10zM261 432l-21 -147h134l21 147h-134z" />
<glyph d="M538 -26q0 -85 -58.5 -136t-146.5 -51q-93 0 -151.5 56.5t-58.5 136.5q0 10 10 10h66q10 0 10 -10q3 -51 35.5 -81t88.5 -30q54 0 86.5 29.5t32.5 75.5q0 40 -33.5 71.5t-105.5 70.5q-104 57 -143.5 94.5t-39.5 92.5q0 68 44 116q-51 51 -51 121q0 85 58.5 136t146.5 51 q93 0 151.5 -56t58.5 -136q0 -11 -11 -11h-65q-10 0 -10 11q-3 51 -35.5 80.5t-88.5 29.5q-54 0 -86.5 -29.5t-32.5 -75.5q0 -41 33.5 -72t104.5 -70q104 -57 143.5 -94.5t39.5 -92.5q0 -67 -44 -117q52 -52 52 -120zM276 347q-7 4 -33 20q-27 -29 -27 -60q0 -28 30 -52 t138 -88l33 -20q27 27 27 60q0 29 -32.5 56t-135.5 84z" />
<glyph d="M459 330h-334q-10 0 -10 10v55q0 11 10 11h403q11 0 11 -11v-205q0 -10 -11 -10h-59q-10 0 -10 10v140z" />
<glyph d="M343 564q0 -71 -44.5 -111t-103.5 -40q-60 0 -104.5 40t-44.5 111t45 112t104 41t103.5 -40.5t44.5 -112.5zM279 564q0 46 -24.5 68.5t-59.5 22.5t-59.5 -22.5t-24.5 -68.5q0 -44 24.5 -67t59.5 -23t59.5 23t24.5 67zM58 205l485 354q3 2 6 2q5 0 8 -5l22 -30q3 -4 3 -7 q0 -4 -5 -7l-485 -354q-3 -2 -6 -2q-5 0 -8 5l-22 29q-3 4 -3 8t5 7zM589 152q0 -71 -45 -111.5t-104 -40.5t-103.5 40.5t-44.5 111.5t44.5 111.5t103.5 40.5q60 0 104.5 -40.5t44.5 -111.5zM524 152q0 46 -24.5 68.5t-59.5 22.5t-59.5 -22.5t-24.5 -68.5q0 -44 24.5 -67.5 t59.5 -23.5t59.5 23.5t24.5 67.5z" />
<glyph d="M262 98h78q10 0 10 -10v-78q0 -10 -10 -10h-78q-10 0 -10 10v78q0 10 10 10z" />
<glyph d="M262 -55q30 0 38.5 7.5t8.5 35.5v12h-47q-10 0 -10 10v78q0 10 10 10h78q10 0 10 -10v-107q0 -37 -15 -55t-51 -18h-22q-10 0 -10 10v16q0 11 10 11z" />
<glyph d="M262 98h78q10 0 10 -10v-78q0 -10 -10 -10h-78q-10 0 -10 10v78q0 10 10 10zM262 514h78q10 0 10 -10v-78q0 -10 -10 -10h-78q-10 0 -10 10v78q0 10 10 10z" />
<glyph d="M262 514h78q10 0 10 -10v-78q0 -10 -10 -10h-78q-10 0 -10 10v78q0 10 10 10zM262 -55q30 0 38.5 7.5t8.5 35.5v12h-47q-10 0 -10 10v78q0 10 10 10h78q10 0 10 -10v-107q0 -37 -15 -55t-51 -18h-22q-10 0 -10 10v16q0 11 10 11z" />
</font>
</defs>
</svg>
