<svg width="100" height="37" viewBox="0 0 100 37" xmlns="http://www.w3.org/2000/svg"><title>Imported Layers</title><desc>Created with Sketch.</desc><g fill="#fff"><path d="M39.298 29.577l-1.762-2.202v-2.077l3.196-3.24h-3.196V13.79l4.262 7.063 3.606-3.656-4.63-7.893-4.918 2.866c-2.172 1.205-3.73 2.7-3.73 4.985v6.69c0 2.948-.08 5.773 1.517 7.476.328.375 5.49 5.65 5.49 5.65l.042.043 6.27-6.398L41.88 27l-2.582 2.577"/><path d="M57.124 29.577l-1.762-2.202v-2.077l3.196-3.24H55.32V13.79l4.262 7.063 3.606-3.656-4.63-7.893-4.918 2.866c-2.17 1.205-3.728 2.7-3.728 4.985v6.69c0 2.948-.082 5.773 1.516 7.476.328.375 5.49 5.65 5.49 5.65l.042.043 6.27-6.398L59.663 27l-2.54 2.577"/><path d="M10.163.995v.79L5.613 4.11v23.223l3.484 3.53V10.052l5.573 3.7v3.945L10 21.435l4.67 4.735v3.116L7.13 36.97 0 29.785V.994h10.163"/><path d="M30.61.995v.79L26.063 4.11v26.67l2.5 2.535-3.606 3.656-4.508-4.568V.995H30.61"/><path d="M82.653.995v28.748l-7.13 7.228-7.58-7.684V13.292l5.572-3.282v20.813l3.565-3.573V4.11l-4.59-2.326v-.79h10.163"/><path d="M89.42 31.608l5.272-5.346 5.274 5.346-5.274 5.347-5.273-5.347"/></g></svg>