<svg width="842" height="301" viewBox="0 0 842 301" xmlns="http://www.w3.org/2000/svg"><title>Imported Layers</title><desc>Created with Sketch.</desc><g fill="#000"><path d="M330.89 238.344l-14.836-18.286v-17.252l26.913-26.913h-26.913V107.23l35.884 58.657 30.363-30.364-38.988-65.557-41.405 23.808C283.62 103.78 270.51 116.2 270.51 135.178v55.55c0 24.5-.69 47.96 12.765 62.108 2.76 3.105 46.235 46.925 46.235 46.925l.345.346 52.79-53.136-30.017-30.018-21.738 21.392"/><path d="M480.98 238.344l-14.835-18.286v-17.252l26.913-26.913H465.8V107.23l35.884 58.657 30.363-30.364-38.99-65.557-41.404 23.808c-18.287 10.006-31.398 22.427-31.398 41.404v55.55c0 24.5-.69 47.96 12.766 62.108 2.762 3.105 46.236 46.925 46.236 46.925l.345.346 52.792-53.136-30.018-30.018-21.393 21.392"/><path d="M85.57.96v6.555l-38.3 19.322v192.875l29.328 29.328V76.177l46.925 30.708v32.78L84.19 170.716l39.333 39.334v25.88l-63.487 63.83L0 240.07V.96h85.57"/><path d="M257.742.96v6.555l-38.3 19.322V248.35l21.05 21.048-30.364 30.363-37.955-37.953V.96h85.57"/><path d="M695.94.96v238.765l-60.037 60.036-63.832-63.83V103.09l46.926-27.258v172.863l30.018-29.673V26.837L610.37 7.515V.96h85.57"/><path d="M752.906 255.22l44.403-44.403 44.403 44.403-44.404 44.404-44.404-44.404"/></g></svg>